<svg version="1.1" xmlns="http://www.w3.org/2000/svg" xmlns:xlink="http://www.w3.org/1999/xlink" x="0px"
                 y="0px"
                 viewBox="0 0 701 123" style="enable-background:new 0 0 701 123;" xml:space="preserve">
<style type="text/css">

    .st1 {
        fill-rule: evenodd;
        clip-rule: evenodd;
    }
    .st2 {
     font-weight: bold;
    }
    .st3 {
        font-size: 24px;
    }
</style>
<g id="Camada_1">
                    <g>
                        <path d="M-0.3,43c0.4,0.1,0.8-0.1,1.1-0.3c4.5-2.7,9.2-5.2,13.9-7.4c6.5-3,13.3-5.2,20.3-6.7c4-0.8,8-1.5,12.1-2
			c3.5-0.4,6.9-0.8,10.4-1.2c0.3,0,0.6-0.2,0.9-0.3c0.1,0.1,0.2,0.2,0.3,0.4c-5,3.6-10,7.3-15,11c1.2,0.4,2.3,0.9,3.3,1.7
			c1.2,1,2.5,1.9,3.8,2.7c0.8,0.5,1.6,1.2,2.3,1.8c0.5-0.5,1.1-1.1,1.7-1.6c1.8-1.5,4-2.3,6.2-2.7c5.1-0.9,10.2-0.8,15.2,0.5
			c3.1,0.8,5.8,2.3,8.1,4.5c2,2,3.3,4.4,4,7.2c0.4,1.7,0.6,3.3,0.6,5c0,9.8,0,19.5,0,29.3c0,0.2,0,0.3,0,0.5c-4.8,0-9.5,0-14.3,0
			c0-0.2,0-0.3,0-0.5c0-9.2,0-18.5,0-27.7c0-1.6-0.2-3.1-0.8-4.5c-0.9-2.3-2.7-3.5-5.1-3.9c-1.4-0.2-2.7-0.1-4,0.3
			c-2.3,0.7-3.6,2.3-4.1,4.6c-0.3,1.2-0.5,2.4-0.5,3.6c0,9.2,0,18.4,0,27.6c0,0.2,0,0.3,0,0.5c-4.7,0-9.5,0-14.3,0
			c0-0.2,0-0.3,0-0.5c0-9.1,0-18.3,0-27.4c0-1.6-0.2-3.2-0.7-4.7c-0.5-1.3-1.3-2.4-2.5-3.2c-0.3-0.2-0.4-0.2-0.7,0
			c-2.9,2-6.1,3.3-9.5,3.9c-0.3,0.1-0.5,0.1-0.6,0.5c-0.1,1.1-0.3,2.1-0.3,3.2c0,9.2,0,18.4,0,27.6c0,0.2,0,0.4,0,0.6
			c-4.8,0-9.5,0-14.3,0c0-0.1,0-0.3,0-0.4c0-9.9,0-19.9,0-29.8c0-0.8,0.1-1.6,0.2-2.5c0-0.2,0.1-0.3-0.2-0.4c-0.1,0-0.1-0.2-0.1-0.2
			c0.2-0.9,0-1.7-0.1-2.6c-0.2-1.9-0.3-3.8-0.1-5.6c0-0.1,0-0.2,0-0.3c-0.9-0.2-13.4-0.4-14.5-0.2c-0.1,0.9-0.2,1.8-0.2,2.7
			c0,2.6,0,5.2,0,7.9c0,1.2,0.4,2.4,0.6,3.6c0.6,2.7,0.9,5.4,1,8.2c0,2.2,0,4.4,0.1,6.6C4,73,4,73.4,4,73.8c0,0-0.1-0.1-0.1-0.1
			c-1.1-2.6-2.1-5.1-2.6-7.8c-0.7-3.3-0.5-6.5,0.5-9.7c0.2-0.6,0.1-1.4,0.1-2.1c-0.1-3.5-0.2-6.9,0.2-10.4c0,0,0,0,0,0
			c-0.8,0-1.5,0-2.3,0C-0.3,43.5-0.3,43.3-0.3,43z"/>
                        <path d="M244.9,5.7c0,0.2,0,0.4,0,0.6c0,26.2,0,52.5,0,78.7c0,0.2,0,0.4,0,0.6c-4.6,0-9.2,0-13.9,0c0-1.5,0-3,0-4.6
			c-0.3,0.3-0.6,0.6-0.8,0.9c-1.6,1.5-3.5,2.4-5.5,3.1c-2.8,1-5.6,1.5-8.6,1.5c-6.1-0.2-11.3-2.2-15.5-6.7c-3.1-3.4-5-7.3-5.9-11.8
			c-0.6-3-0.7-6-0.4-9.1c0.6-6,3-11.2,7.4-15.4c2.7-2.5,5.9-4.1,9.6-4.8c4.2-0.8,8.4-0.7,12.5,0.4c2.1,0.6,4,1.5,5.5,3.1
			c0.5,0.6,1,1.2,1.5,1.8c0,0,0-0.1,0-0.2c0-12.6,0-25.3,0-37.9c0,0,0-0.1,0-0.1C235.6,5.7,240.3,5.7,244.9,5.7z M231,62.8
			c0-1.3,0-2.5,0-3.8c0-1.2-0.2-2.4-0.8-3.5c-1.1-2.3-2.8-4-4.8-5.5c-3.8-2.8-8.8-2.2-11.9,0.2c-2.2,1.7-3.5,4-4.3,6.6
			c-0.9,2.9-1,5.8-0.5,8.7c0.5,3.1,1.8,5.9,4.1,8c3,2.8,6.5,3.6,10.4,2.1c2.4-1,4.5-2.6,6.1-4.6c1.1-1.3,1.7-2.9,1.6-4.6
			C231,65.2,231,64,231,62.8z"/>
                        <path d="M289.9,87c-0.6-0.1-1.3-0.1-1.9-0.2c-8.3-1.2-14.6-5.4-18.6-12.9c-1.3-2.5-2-5.2-2.3-8c-0.4-3.7-0.2-7.3,0.7-10.8
			c1.9-7.3,6.6-12.2,13.4-15.2c3.2-1.4,6.6-2,10.1-2.1c3.3-0.1,6.5,0.1,9.6,1c6.4,1.8,11.1,5.8,14.2,11.5c1.6,2.9,2.6,6.1,3,9.4
			c0.2,1.3,0.3,2.6,0.4,3.8c0,0.1,0,0.1,0.1,0.2c0,0.9,0,1.8,0,2.7c-12.5,0-25,0-37.4,0c0,0.1,0,0.1,0,0.1c0,0.1,0,0.1,0,0.2
			c0.7,3.2,2.4,5.7,4.9,7.8c1.7,1.4,3.7,2.4,6,2.6c1.7,0.2,3.3-0.1,4.9-0.6c1.8-0.6,3.5-1.2,5.1-2.4c0.7-0.5,1.3-1.2,1.5-2.1
			c0-0.2,0.1-0.4,0.1-0.7c2.5,0,4.9,0,7.4,0c2.1,0,4.2,0,6.3,0c0.4,0,0.9,0,1.3-0.1c0,0.1,0,0.2,0,0.2c0,0.1-0.1,0.1-0.1,0.2
			c-2,4.5-5.1,7.9-9.2,10.5c-3.9,2.4-8.2,4-12.8,4.5c-0.6,0.1-1.2,0.2-1.8,0.2C293.1,87,291.5,87,289.9,87z M304.4,57.8
			c0-0.1,0-0.1,0-0.2c-0.3-1.4-0.7-2.8-1.4-4c-2.3-4.1-5.6-6.5-10.4-6.4c-2.3,0-4.4,0.8-6.2,2.3c-2,1.7-3.4,4-4.3,6.5
			c-0.2,0.6-0.3,1.2-0.5,1.8C289.2,57.8,296.8,57.8,304.4,57.8z"/>
                        <path d="M264.2,5.7c0,0.2,0,0.4,0,0.6c0,26.2,0,52.4,0,78.7c0,0.2,0,0.4,0,0.6c-4.8,0-9.5,0-14.3,0c0-26.6,0-53.2,0-79.9
			C254.6,5.7,259.4,5.7,264.2,5.7z"/>

                        <path d="M142.5,62.2c0-4,0.7-7.9,2.5-11.4c3.3-6.4,8.5-10.5,15.4-12.3c3.4-0.9,6.8-1,10.3-0.7c4.7,0.5,8.9,2,12.7,4.9
			c4.7,3.6,7.7,8.3,8.7,14.2c0.9,5.1,0.7,10.2-1.3,15.1c-2.1,5.3-5.9,9.2-10.8,11.9c-3.2,1.7-6.6,2.6-10.2,2.8
			c-3.9,0.3-7.7,0-11.3-1.4c-8.1-3-13.3-8.7-15.2-17.2C142.6,66.2,142.5,64.2,142.5,62.2z M156.8,62.4c0,2.6,0.5,5.2,1.7,7.5
			c2.3,4.4,6.5,6.5,11.4,5.4c2.7-0.6,4.6-2.2,6.1-4.5c1.4-2.2,2.1-4.7,2.3-7.3c0.2-2.7-0.1-5.3-1.1-7.7c-0.9-2.2-2.3-4.1-4.4-5.4
			c-2-1.2-4.2-1.5-6.5-1.2c-2.7,0.3-4.9,1.5-6.6,3.7C157.6,55.8,156.8,58.9,156.8,62.4z"/>
                        <path d="M115.9,86.9c-4-0.1-7.9-0.7-11.6-2.5c-6.8-3.4-11.2-8.8-12.8-16.3c-1.1-5.3-0.9-10.5,1.1-15.5c2.8-6.9,7.9-11.5,15-13.7
			c3.4-1.1,6.9-1.3,10.4-1.1c3.5,0.2,6.9,1,10,2.7c6.6,3.5,10.9,8.9,12.4,16.3c1,4.9,0.7,9.8-1,14.6c-1.7,4.7-4.8,8.4-8.9,11.2
			c-3.2,2.2-6.9,3.5-10.8,4C118.6,86.7,117.3,86.8,115.9,86.9z M126.7,61.5c0-1.4-0.3-3.6-1.2-5.7c-1-2.4-2.5-4.3-4.8-5.5
			c-1.9-1-3.9-1.2-6.1-1c-2.8,0.3-5.1,1.6-6.7,3.9c-2.1,3-2.8,6.4-2.7,10c0.1,2.5,0.6,4.9,1.8,7.1c2.8,5.2,7.9,6.3,12.3,4.8
			c2.4-0.8,4-2.5,5.2-4.6C126.2,68,126.7,65.2,126.7,61.5z"/>
                    </g>
                </g>
                <g id="Camada_2">
                    <rect x="408" y="-0.5" width="0.7" height="104"/>
                </g>
                <g id="Camada_3">
                    <g>
                        <path class="st1" d="M492.8,77.6l0,1.1c-0.1-0.1-0.2-0.2-0.4-0.2c-0.2,0-0.6,0-0.9-0.1c-0.2,0.3-0.1,0.7,0.5,0.9
			c0.3,0.1,0.5,0.4,0.4,0.8c0,0.1,0,0.2,0,0.3c0.1,0.2,0.2,0.2,0.5,0.3c0.1,0.3,0.3,0.7,0.9,0.7c0.6,0,0.8-0.3,0.9-0.6
			c0.4,0,0.6-0.2,0.6-0.5c0-0.2,0-0.3,0-0.4c0.1-0.2,0.1-0.3,0.3-0.4c0.1-0.1,0.2-0.1,0.3-0.1c0.4-0.2,0.6-0.5,0.4-0.8
			c-0.2,0-0.8,0-0.9,0c-0.2,0-0.3,0.1-0.4,0.1l0-0.7c0,0,0,0,0,0c2.3,0.4,4.3,0.2,5.5-1c1.8-2.1,2.1-5.5,2.1-6
			c0.2-1.4-1.3-2.2-3-2.8c0.1-0.9,1.4-2.6,1.9-3.6c-1.9-0.4-4.2,0.4-4.5,0.7l2-18.8h-1.9l0.1-1.4l0.4,0c0.3,0,0.4-0.2,0.4-0.4v-0.4
			c0.2,0,0.3,0,0.5-0.1c0.2-0.1,0.4-0.2,0.5-0.4c0.1-0.3,0.1-0.8,0-1.1c0-0.2-0.1-0.4-0.3-0.5c-0.2-0.1-0.4-0.1-0.7-0.2l0-0.4
			c0,0,0-0.4-0.5-0.4c-1.3,0-2.7,0-4,0c-0.3,0-0.5,0.2-0.5,0.4l0,0.3c-0.3,0-0.5,0.1-0.7,0.1c-0.2,0.1-0.3,0.3-0.4,0.6
			c0,0.3,0,0.6,0,0.9c0.1,0.2,0.2,0.4,0.5,0.5c0.2,0,0.3,0.1,0.5,0.1l0,0.4c0,0.2,0.2,0.3,0.4,0.4l0.3,0l0,1.4h-5.2l0-1.4l0.3,0
			c0.3,0,0.4-0.2,0.4-0.4l0-0.4c0.2,0,0.4,0,0.5-0.1c0.2-0.1,0.4-0.2,0.5-0.4c0.1-0.3,0.1-0.8,0-1.1c0-0.2-0.1-0.4-0.3-0.5
			c-0.2-0.1-0.4-0.1-0.7-0.2l0-0.4c0,0,0-0.4-0.5-0.4c-0.6,0-1.3,0-1.9,0v0c0,0,0,0,0,0c0,0,0,0-0.1,0c0,0,0,0,0,0v0
			c-0.6,0-1.3,0-1.9,0c-0.5,0-0.5,0.3-0.5,0.4l0,0.4c-0.3,0-0.5,0.1-0.7,0.2c-0.2,0.1-0.3,0.2-0.3,0.5c0,0.3-0.1,0.8,0,1.1
			c0.1,0.2,0.3,0.3,0.5,0.4c0.1,0,0.3,0.1,0.5,0.1l0,0.4c0,0.1,0.1,0.3,0.4,0.4l0.3,0l0,1.4h-5.2l0-1.4l0.3,0c0.2,0,0.4-0.2,0.4-0.4
			l0-0.4c0.2,0,0.3,0,0.5-0.1c0.3-0.1,0.5-0.3,0.5-0.5c0.1-0.4,0-0.6,0-0.9c0-0.3-0.2-0.4-0.4-0.6c-0.2-0.1-0.4-0.1-0.7-0.1l0-0.3
			c0-0.3-0.2-0.4-0.5-0.4c-1.3,0-2.7,0-4,0c-0.5,0-0.5,0.3-0.5,0.4l0,0.4c-0.3,0-0.5,0.1-0.7,0.2c-0.2,0.1-0.3,0.2-0.3,0.5
			c0,0.3-0.1,0.8,0,1.1c0.1,0.2,0.3,0.3,0.5,0.4c0.1,0,0.3,0.1,0.5,0.1l0,0.4c0,0.1,0.1,0.3,0.4,0.4l0.4,0l0.1,1.4h-1.9l2,18.8
			c-0.3-0.3-2.6-1.1-4.5-0.7c0.5,1,1.8,2.7,1.9,3.6c-1.7,0.5-3.2,1.4-3,2.8c0.1,0.5,0.3,3.9,2.1,6c1.2,1.2,3.2,1.4,5.5,1
			c0,0,0,0,0,0l0,0.7c-0.1,0-0.2-0.1-0.4-0.1c-0.1,0-0.7,0-0.9,0c-0.2,0.3,0,0.7,0.4,0.8c0.1,0,0.2,0.1,0.3,0.1
			c0.2,0.1,0.2,0.2,0.3,0.4c0,0.1,0,0.2,0,0.4c0,0.3,0.2,0.4,0.6,0.5c0.1,0.3,0.3,0.6,0.9,0.6c0.6,0,0.8-0.4,0.9-0.7
			c0.3-0.1,0.4-0.1,0.5-0.3c0-0.1,0-0.2,0-0.3c-0.1-0.4,0.1-0.7,0.4-0.8c0.6-0.2,0.6-0.6,0.5-0.9c-0.3,0-0.6,0-0.9,0.1
			c-0.1,0-0.3,0.1-0.4,0.2l0-1.1c2.1-0.4,3.4-0.5,5-0.6l0,1c0-0.1-0.1-0.2-0.4-0.2c-0.1,0-0.8,0-0.9,0c-0.2,0.3-0.1,0.6,0.3,0.8
			c0.1,0,0.2,0.1,0.3,0.1c0.1,0.1,0.2,0.2,0.3,0.4c0,0.1,0,0.2,0,0.4c0,0.3,0.2,0.5,0.6,0.5c0,0.1,0.1,0.2,0.2,0.3
			c0.1,0.2,0.4,0.3,0.7,0.3c0,0,0,0,0.1,0h0c0,0,0,0,0.1,0c0.3,0,0.6-0.1,0.7-0.3c0.1-0.1,0.1-0.2,0.2-0.3c0.4,0,0.6-0.2,0.6-0.5
			c0-0.2-0.1-0.3,0-0.4c0-0.2,0.2-0.3,0.3-0.4c0.1-0.1,0.2-0.1,0.3-0.1c0.4-0.2,0.5-0.5,0.3-0.8c-0.2,0-0.8,0-0.9,0
			c-0.3,0.1-0.3,0.2-0.4,0.2l0-1C489.5,77.1,490.8,77.2,492.8,77.6L492.8,77.6z M481.5,88.9c0-0.5,0-1,0-1.5c0-0.5,0-1,0-1.4
			c0-0.2,0-0.3,0-0.5c0-0.2,0-0.3,0-0.5l-1,0.6c0-0.1-0.1-0.1-0.1-0.2c0,0-0.1-0.1-0.1-0.1c0.2-0.1,0.5-0.2,0.8-0.3
			c0.3-0.1,0.6-0.3,1-0.5c0,0.4,0,0.8,0,1.4c0,0.5,0,1.2,0,1.9c0,0.3,0,0.5,0,0.6c0,0.2,0,0.3,0,0.5c0,0-0.1,0-0.1,0
			c0,0-0.1,0-0.2,0c-0.1,0-0.1,0-0.2,0C481.6,88.9,481.6,88.9,481.5,88.9L481.5,88.9z M461.5,80.3c0-0.1-0.1-0.1-0.1-0.2
			c0-0.1-0.1-0.1-0.1-0.2c-0.1-0.1-0.1-0.1-0.2-0.2c0,0-0.1-0.1-0.1-0.1c0.6-0.5,1.1-0.9,1.5-1.3c0.4-0.4,0.7-0.6,0.9-0.8
			c0.4-0.4,0.7-0.7,0.8-0.9c0.2-0.2,0.3-0.5,0.3-0.7c0-0.2,0-0.5-0.1-0.7c-0.1-0.2-0.2-0.5-0.4-0.7c-0.2-0.2-0.4-0.4-0.7-0.5
			c-0.2-0.1-0.5-0.2-0.7-0.1c-0.3,0-0.5,0.1-0.8,0.3c-0.3,0.2-0.7,0.5-1.2,1c-0.4,0.3-0.7,0.7-1,1c-0.3,0.3-0.7,0.6-1,0.9
			c0,0,0-0.1-0.1-0.1c0,0-0.1-0.1-0.1-0.1c0,0-0.1-0.1-0.1-0.1c0,0-0.1-0.1-0.1-0.1c0.3-0.2,0.5-0.4,0.7-0.6
			c0.2-0.2,0.4-0.3,0.5-0.4l0.2-0.2c0.8-0.7,1.4-1.2,1.7-1.5c0.3-0.2,0.6-0.4,0.9-0.4c0.4-0.1,0.8,0,1.1,0.1
			c0.4,0.1,0.7,0.4,1.1,0.8c0.6,0.6,0.8,1.3,0.8,1.8c0,0.6-0.4,1.2-1.1,1.8c0,0-0.2,0.2-0.5,0.4c-0.3,0.3-0.6,0.5-0.9,0.8
			c-0.2,0.2-0.5,0.5-1,1C461.6,80.2,461.6,80.3,461.5,80.3L461.5,80.3z M461.8,71.2c-0.2,0.1-0.3,0.2-0.5,0.2
			c-0.2,0.1-0.5,0.2-0.8,0.4l-0.5,0.3c-0.5,0.3-0.9,0.5-1.1,0.6c-0.2,0.1-0.4,0.3-0.6,0.4c0-0.1,0-0.1-0.1-0.2c0-0.1,0-0.1-0.1-0.2
			c0-0.1-0.1-0.1-0.1-0.2c0,0-0.1-0.1-0.1-0.1c0,0,0,0,0,0c0.2-0.1,0.3-0.1,0.4-0.2c0,0,0.1,0,0.1-0.1c0.1,0,0.1-0.1,0.1-0.1
			c-0.3,0-0.6-0.1-0.8-0.2c-0.2-0.1-0.4-0.3-0.6-0.6c-0.2-0.4-0.3-0.8-0.1-1.1c0.1-0.3,0.4-0.6,0.9-0.9c0.1-0.1,0.3-0.2,0.6-0.3
			c0.3-0.1,0.4-0.2,0.6-0.3c0.2-0.1,0.4-0.2,0.6-0.3c0.2-0.1,0.4-0.2,0.6-0.3c0,0.1,0,0.1,0.1,0.2c0,0.1,0,0.1,0.1,0.2
			c0,0.1,0.1,0.1,0.1,0.1c0,0,0.1,0.1,0.1,0.2c-0.3,0.1-0.6,0.3-1,0.5c-0.4,0.2-0.8,0.4-1.2,0.6c-0.4,0.2-0.6,0.4-0.7,0.7
			c-0.1,0.2-0.1,0.5,0.1,0.8c0.1,0.2,0.2,0.3,0.3,0.4c0.1,0.1,0.3,0.1,0.4,0.2c0.2,0,0.4,0,0.5,0c0.2,0,0.5-0.2,0.8-0.4l0.3-0.2
			c0.4-0.2,0.8-0.4,0.9-0.5c0.2-0.1,0.3-0.2,0.5-0.3c0,0.1,0,0.1,0.1,0.2c0,0.1,0,0.1,0.1,0.2c0,0.1,0.1,0.1,0.1,0.1
			C461.7,71.1,461.7,71.1,461.8,71.2L461.8,71.2z M459.6,66.7c-0.4,0.1-0.7,0.3-1.1,0.4c-0.3,0.1-0.7,0.3-1,0.4
			c-0.3,0.1-0.6,0.2-0.9,0.4c-0.3,0.1-0.6,0.3-0.9,0.4c0-0.1,0-0.1,0-0.2c0-0.1,0-0.1-0.1-0.2c0-0.1-0.1-0.1-0.1-0.2
			c0-0.1-0.1-0.1-0.1-0.1c0.3-0.1,0.7-0.2,1-0.4c0.3-0.1,0.6-0.2,0.9-0.3c0.3-0.1,0.6-0.3,1-0.4c0.3-0.1,0.7-0.3,1-0.5
			c0,0.1,0,0.1,0,0.2c0,0.1,0,0.1,0.1,0.2c0,0.1,0,0.1,0.1,0.2C459.5,66.5,459.5,66.6,459.6,66.7L459.6,66.7z M454.4,68.9
			c-0.1,0-0.2,0-0.3,0c-0.1,0-0.2-0.1-0.2-0.2c0-0.1,0-0.2,0-0.3c0-0.1,0.1-0.2,0.2-0.2c0.1,0,0.2,0,0.3,0c0.1,0,0.2,0.1,0.2,0.2
			c0,0.1,0,0.2,0,0.3C454.6,68.7,454.5,68.8,454.4,68.9L454.4,68.9z M458.5,63.4c-0.4,0.2-0.8,0.5-1.4,1c-0.6,0.4-1.3,1-2.2,1.7
			c0-0.1,0-0.1,0-0.2c0-0.1,0-0.1,0-0.2c0-0.1,0-0.1-0.1-0.2c0-0.1-0.1-0.1-0.1-0.2c0.3-0.2,0.7-0.5,1.2-0.8c0.5-0.3,1-0.8,1.7-1.3
			c-0.6-0.1-1.2-0.2-1.8-0.3c-0.6-0.1-1.2-0.1-1.8-0.1c0,0,0-0.1,0-0.1c0,0,0-0.1,0-0.1c0,0,0-0.1,0-0.1c0,0,0-0.1-0.1-0.1
			c1,0.2,2,0.3,2.8,0.4c0.8,0.1,1.4,0.2,1.7,0.2c0,0,0,0.1,0,0.1c0,0,0,0.1,0,0.2C458.4,63.3,458.4,63.3,458.5,63.4
			C458.4,63.4,458.5,63.4,458.5,63.4L458.5,63.4z M457,57.2c0.2,0.2,0.3,0.4,0.4,0.7c0.1,0.2,0.2,0.5,0.2,0.8
			c0.1,0.6-0.1,1.1-0.5,1.5c-0.4,0.4-0.9,0.6-1.5,0.7c-0.6,0.1-1.2-0.1-1.6-0.4c-0.4-0.3-0.7-0.8-0.7-1.4c0-0.6,0.1-1,0.4-1.3
			c0.3-0.3,0.8-0.5,1.4-0.6c0,0,0.1,0,0.1,0c0,0,0.1,0,0.1,0l0.3,3l0,0c0.6-0.1,1-0.2,1.3-0.5c0.3-0.3,0.4-0.7,0.4-1.1
			c0-0.3-0.1-0.5-0.2-0.7c-0.1-0.2-0.3-0.4-0.5-0.6c0.1,0,0.2,0,0.2,0c0,0,0.1,0,0.1,0L457,57.2L457,57.2z M455.3,60.2l-0.2-2.3
			l-0.1,0c-0.4,0-0.8,0.2-1,0.4c-0.2,0.2-0.3,0.5-0.3,0.8c0,0.3,0.2,0.6,0.5,0.8C454.4,60.1,454.8,60.2,455.3,60.2L455.3,60.2z
			 M457.4,55.8c-0.3,0-0.7,0-1.1,0c-0.5,0-1,0-1.7,0c-0.4,0-0.6,0-0.8,0c-0.2,0-0.3,0-0.5,0c0-0.1,0-0.1,0-0.2c0-0.1,0-0.1,0-0.2
			c0-0.1,0-0.1,0-0.2c0-0.1,0-0.1,0-0.2c0.1,0,0.3,0,0.4,0c0.2,0,0.3,0,0.5,0c-0.3-0.2-0.6-0.3-0.8-0.5c-0.2-0.2-0.2-0.4-0.2-0.6
			c0,0,0-0.1,0-0.1c0-0.1,0-0.1,0-0.2c0.1,0,0.2,0,0.3,0c0.1,0,0.2,0,0.4,0l0,0.1c0,0.1-0.1,0.1-0.1,0.2c0,0.1,0,0.1,0,0.2
			c0,0.3,0.1,0.5,0.4,0.7c0.3,0.1,0.7,0.2,1.3,0.2c0.4,0,0.7,0,1,0c0.3,0,0.6,0,0.8,0c0,0.1,0,0.1,0,0.2c0,0.1,0,0.1,0,0.2
			c0,0.1,0,0.1,0,0.2C457.4,55.6,457.4,55.7,457.4,55.8L457.4,55.8z M456.7,52.8c0.2-0.1,0.4-0.3,0.5-0.4c0.1-0.2,0.2-0.3,0.2-0.6
			c0-0.3,0-0.5-0.1-0.6c-0.1-0.2-0.3-0.3-0.6-0.3c-0.2,0-0.3,0-0.5,0.1c-0.1,0.1-0.2,0.3-0.3,0.5l-0.2,0.4c-0.1,0.3-0.3,0.5-0.5,0.7
			c-0.2,0.1-0.4,0.2-0.7,0.1c-0.4,0-0.6-0.2-0.8-0.5c-0.2-0.3-0.3-0.6-0.2-1c0-0.2,0.1-0.4,0.1-0.6c0.1-0.2,0.2-0.3,0.3-0.5
			c0.1,0,0.2,0.1,0.3,0.1c0.1,0,0.2,0.1,0.3,0.1c-0.2,0.1-0.4,0.3-0.5,0.4c-0.1,0.2-0.2,0.3-0.2,0.5c0,0.2,0,0.4,0.1,0.6
			c0.1,0.2,0.3,0.2,0.5,0.3c0.2,0,0.4,0,0.5-0.1c0.1-0.1,0.2-0.2,0.3-0.5l0.2-0.6c0.1-0.3,0.3-0.5,0.4-0.6c0.2-0.1,0.4-0.2,0.7-0.1
			c0.4,0,0.7,0.2,0.9,0.5c0.2,0.3,0.3,0.7,0.2,1.2c0,0.2-0.1,0.4-0.2,0.6c-0.1,0.2-0.2,0.3-0.3,0.5c-0.1-0.1-0.2-0.1-0.3-0.2
			C456.9,52.9,456.8,52.9,456.7,52.8L456.7,52.8z M458.1,49.3c-0.4-0.1-0.8-0.2-1.1-0.3c-0.3-0.1-0.7-0.2-1-0.2
			c-0.3-0.1-0.6-0.1-0.9-0.2c-0.3-0.1-0.7-0.1-1-0.2c0-0.1,0-0.1,0.1-0.2c0-0.1,0-0.1,0-0.2c0-0.1,0-0.1,0-0.2c0-0.1,0-0.1,0-0.2
			c0.4,0.1,0.7,0.2,1,0.2c0.3,0.1,0.6,0.1,0.9,0.2c0.3,0.1,0.7,0.1,1,0.2c0.4,0.1,0.7,0.1,1.1,0.2c0,0.1,0,0.1-0.1,0.2
			c0,0.1,0,0.1,0,0.2c0,0.1,0,0.1,0,0.2C458.2,49.2,458.1,49.3,458.1,49.3L458.1,49.3z M452.6,48.3c-0.1,0-0.2-0.1-0.3-0.2
			c-0.1-0.1-0.1-0.2-0.1-0.3c0-0.1,0.1-0.2,0.2-0.3c0.1-0.1,0.2-0.1,0.3-0.1c0.1,0,0.2,0.1,0.3,0.2c0.1,0.1,0.1,0.2,0.1,0.3
			c0,0.1-0.1,0.2-0.2,0.3C452.8,48.3,452.7,48.3,452.6,48.3L452.6,48.3z M455.7,44.3c-0.1,0.4-0.1,0.7,0.1,1.1
			c0.2,0.3,0.6,0.6,1.2,0.8c0.5,0.2,1,0.2,1.3,0.1c0.4-0.1,0.6-0.3,0.7-0.7c0.1-0.4,0.1-0.8-0.2-1.1c-0.2-0.3-0.7-0.6-1.2-0.8
			c-0.5-0.2-0.9-0.2-1.3-0.1C456,43.7,455.8,44,455.7,44.3L455.7,44.3z M459.7,44.4c-0.1,0-0.2-0.1-0.3-0.1c-0.1,0-0.1-0.1-0.2-0.1
			c-0.1,0-0.1,0-0.2-0.1c0,0-0.1,0-0.1,0c0.2,0.3,0.4,0.5,0.5,0.8c0.1,0.3,0,0.6-0.1,0.9c-0.2,0.5-0.5,0.8-0.9,1
			c-0.5,0.2-1,0.2-1.6,0c-0.6-0.2-1.1-0.5-1.3-1c-0.3-0.5-0.3-0.9-0.1-1.5c0.1-0.3,0.2-0.5,0.4-0.7c0.2-0.2,0.5-0.3,0.8-0.4
			l-1.5-0.5c-0.3-0.1-0.5-0.2-0.8-0.3c-0.3-0.1-0.5-0.2-0.7-0.2c0-0.1,0.1-0.1,0.1-0.2c0-0.1,0-0.1,0.1-0.1c0,0,0-0.1,0-0.2
			c0-0.1,0-0.1,0-0.2c0.3,0.1,0.7,0.3,1.1,0.4c0.4,0.2,0.9,0.3,1.5,0.5c0.6,0.2,1.2,0.4,1.8,0.6c0.6,0.2,1.2,0.4,1.8,0.6
			c0,0.1-0.1,0.1-0.1,0.2c0,0.1,0,0.1-0.1,0.2c0,0.1,0,0.1,0,0.2C459.7,44.3,459.7,44.4,459.7,44.4L459.7,44.4z M459.7,39.5
			c-0.3,0.7-0.4,1.2-0.4,1.5c0,0.3,0.2,0.5,0.4,0.6c0.2,0.1,0.4,0.2,0.6,0.1c0.2,0,0.3-0.2,0.5-0.4c0.1-0.1,0.1-0.3,0.1-0.5
			c0-0.2,0-0.3,0-0.5c0-0.1,0-0.1-0.1-0.2c0,0-0.1-0.1-0.2-0.1l0,0L459.7,39.5L459.7,39.5z M461.2,40.3c0.1,0.3,0.1,0.5,0.1,0.7
			c0,0.2-0.1,0.5-0.2,0.7c-0.2,0.3-0.4,0.5-0.7,0.6c-0.3,0.1-0.5,0.1-0.8-0.1c-0.3-0.2-0.4-0.3-0.5-0.6c-0.1-0.2-0.1-0.5,0-0.9
			c0-0.1,0.1-0.3,0.2-0.6c0.2-0.5,0.2-0.8,0.2-1l-0.2-0.1c-0.4-0.2-0.6-0.3-0.9-0.2c-0.2,0-0.4,0.2-0.6,0.5
			c-0.1,0.2-0.2,0.4-0.2,0.6c0,0.2,0.1,0.4,0.2,0.6l0,0.1l-0.4-0.2c0-0.2-0.1-0.5,0-0.7c0-0.2,0.1-0.5,0.3-0.7
			c0.2-0.4,0.5-0.7,0.8-0.7c0.3-0.1,0.7,0,1.1,0.3l0.1,0.1l1.3,0.8l0.2,0.1c0.2,0.1,0.4,0.2,0.4,0.2c0.1,0,0.2-0.1,0.2-0.2
			c0,0,0-0.1,0-0.1c0,0,0,0,0-0.1l0.2,0.1l0,0c-0.1,0.3-0.1,0.5-0.2,0.7c-0.1,0.1-0.2,0.2-0.3,0.2C461.5,40.4,461.4,40.4,461.2,40.3
			L461.2,40.3z M461,34.8c-0.3,0.3-0.4,0.7-0.3,1c0.1,0.4,0.4,0.8,0.8,1.2c0.4,0.4,0.8,0.6,1.2,0.6c0.4,0,0.7-0.1,0.9-0.4
			c0.3-0.3,0.4-0.7,0.3-1.1c-0.1-0.4-0.4-0.8-0.9-1.2c-0.4-0.4-0.8-0.5-1.2-0.6C461.6,34.4,461.3,34.5,461,34.8L461,34.8z
			 M464.7,36.4c-0.1-0.1-0.2-0.2-0.2-0.2c-0.1-0.1-0.1-0.1-0.2-0.1c-0.1-0.1-0.1-0.1-0.2-0.1c0,0-0.1-0.1-0.1-0.1
			c0.1,0.3,0.2,0.6,0.1,0.9c0,0.3-0.2,0.6-0.4,0.8c-0.3,0.4-0.8,0.6-1.3,0.6c-0.5,0-1-0.2-1.4-0.6c-0.5-0.4-0.8-0.9-0.9-1.4
			c-0.1-0.5,0.1-1,0.4-1.4c0.2-0.2,0.4-0.4,0.7-0.5c0.2-0.1,0.5-0.1,0.8-0.1l-1.2-1c-0.2-0.2-0.4-0.4-0.6-0.5
			c-0.2-0.2-0.4-0.3-0.6-0.5c0.1,0,0.1-0.1,0.2-0.1c0,0,0.1-0.1,0.1-0.1c0,0,0.1-0.1,0.1-0.1c0,0,0.1-0.1,0.1-0.2
			c0.2,0.2,0.5,0.5,0.9,0.8c0.3,0.3,0.7,0.7,1.2,1.1c0.5,0.4,0.9,0.8,1.4,1.2c0.5,0.4,1,0.8,1.4,1.2c-0.1,0-0.1,0.1-0.1,0.1
			c0,0-0.1,0.1-0.1,0.1c0,0-0.1,0.1-0.1,0.1C464.8,36.3,464.8,36.4,464.7,36.4L464.7,36.4z M468.3,32.3c-0.1,0.3-0.2,0.5-0.3,0.7
			c-0.1,0.2-0.3,0.4-0.5,0.6c-0.5,0.4-1,0.6-1.5,0.6c-0.5,0-1-0.3-1.5-0.8c-0.4-0.5-0.7-1-0.6-1.5c0-0.5,0.2-1,0.7-1.4
			c0.4-0.4,0.8-0.5,1.3-0.5c0.4,0,0.9,0.3,1.3,0.7c0,0,0,0,0.1,0.1c0,0,0,0.1,0.1,0.1l-2.2,2l0,0c0.4,0.4,0.8,0.7,1.2,0.8
			c0.4,0.1,0.8-0.1,1.1-0.4c0.2-0.2,0.3-0.4,0.4-0.6c0.1-0.2,0.2-0.5,0.2-0.7c0.1,0.1,0.1,0.1,0.1,0.2
			C468.2,32.2,468.2,32.2,468.3,32.3L468.3,32.3L468.3,32.3z M464.9,32.7l1.7-1.5l-0.1-0.1c-0.3-0.3-0.6-0.5-0.9-0.6
			c-0.3-0.1-0.6,0-0.8,0.3c-0.3,0.2-0.4,0.5-0.3,0.9C464.5,32,464.6,32.3,464.9,32.7L464.9,32.7z M472,30.4
			c-0.1-0.3-0.3-0.6-0.4-0.9c-0.2-0.3-0.3-0.7-0.6-1.1c-0.3-0.6-0.6-1.1-0.9-1.6c-0.3-0.5-0.6-1.1-0.9-1.6c0.1,0,0.2-0.1,0.4-0.2
			c0.1-0.1,0.4-0.2,0.7-0.4c0.4-0.2,0.7-0.4,0.9-0.5c0.3-0.1,0.5-0.3,0.7-0.4c0,0,0,0.1,0.1,0.1c0,0.1,0,0.1,0.1,0.1
			c0,0,0,0.1,0.1,0.1c0,0.1,0.1,0.1,0.1,0.1c-0.2,0.1-0.4,0.1-0.7,0.3c-0.3,0.1-0.7,0.3-1.2,0.6l-0.2,0.1c0.1,0.1,0.1,0.3,0.2,0.5
			c0.1,0.2,0.2,0.4,0.4,0.7l0.3,0.5l0.1,0.2l0.6-0.3c0.2-0.1,0.5-0.3,0.7-0.4c0.2-0.1,0.4-0.2,0.6-0.4c0,0,0,0.1,0,0.1
			c0,0,0,0.1,0.1,0.1c0,0.1,0.1,0.1,0.1,0.1c0,0,0,0.1,0,0.1c-0.4,0.2-0.8,0.4-1.1,0.5c-0.3,0.1-0.5,0.2-0.7,0.3l-0.2,0.1l0.9,1.8
			c0.2,0.3,0.3,0.5,0.3,0.6c0.1,0.1,0.1,0.2,0.2,0.3c-0.1,0-0.1,0-0.2,0.1c-0.1,0-0.1,0.1-0.2,0.1c-0.1,0-0.1,0.1-0.2,0.1
			C472.1,30.3,472,30.3,472,30.4L472,30.4z M478.5,27c-0.2,0.2-0.3,0.4-0.5,0.6c-0.2,0.2-0.4,0.3-0.7,0.4c-0.6,0.2-1.1,0.2-1.6,0
			c-0.5-0.2-0.9-0.6-1.1-1.2c-0.2-0.6-0.3-1.2-0.1-1.7c0.2-0.5,0.6-0.9,1.2-1.1c0.5-0.2,1-0.2,1.4,0c0.4,0.2,0.7,0.6,0.9,1.1
			c0,0,0,0,0,0.1c0,0,0,0.1,0,0.1l-2.8,1.1l0,0c0.2,0.6,0.5,0.9,0.8,1.1c0.3,0.2,0.7,0.2,1.2,0c0.2-0.1,0.4-0.2,0.6-0.4
			c0.2-0.2,0.3-0.4,0.4-0.6c0,0.1,0,0.2,0.1,0.2c0,0,0,0.1,0,0.1L478.5,27L478.5,27z M475.2,26.1l2.1-0.8l-0.1-0.1
			c-0.2-0.4-0.4-0.7-0.6-0.8c-0.3-0.2-0.6-0.2-0.9-0.1c-0.3,0.1-0.5,0.4-0.6,0.7C475,25.3,475,25.7,475.2,26.1L475.2,26.1z M481,23
			c-0.4,0.1-0.7,0.3-0.8,0.7c-0.2,0.4-0.2,0.8-0.1,1.4c0.1,0.5,0.3,1,0.6,1.2c0.3,0.3,0.6,0.4,1,0.3c0.4-0.1,0.7-0.3,0.9-0.7
			c0.2-0.4,0.2-0.9,0.1-1.5c-0.1-0.5-0.3-0.9-0.6-1.2C481.7,23,481.3,23,481,23L481,23z M482.9,26.6c0-0.1,0-0.2,0-0.3
			c0-0.1,0-0.1,0-0.2c0-0.1,0-0.2,0-0.2c0,0,0-0.1,0-0.1c-0.1,0.3-0.3,0.6-0.5,0.8c-0.2,0.2-0.5,0.3-0.8,0.4c-0.5,0.1-1,0-1.4-0.3
			c-0.4-0.3-0.6-0.8-0.8-1.4c-0.1-0.6-0.1-1.2,0.2-1.7c0.3-0.5,0.7-0.8,1.2-0.9c0.3-0.1,0.6,0,0.8,0c0.2,0.1,0.5,0.2,0.7,0.5
			l-0.3-1.5c-0.1-0.3-0.1-0.5-0.2-0.8c-0.1-0.3-0.1-0.5-0.2-0.8c0.1,0,0.2,0,0.2,0c0.1,0,0.1,0,0.2,0c0,0,0.1,0,0.2,0
			c0.1,0,0.1,0,0.2-0.1c0.1,0.3,0.1,0.7,0.2,1.2c0.1,0.4,0.2,1,0.3,1.6c0.1,0.6,0.2,1.2,0.4,1.8c0.1,0.6,0.3,1.2,0.4,1.8
			c-0.1,0-0.1,0-0.2,0c-0.1,0-0.1,0-0.2,0c-0.1,0-0.1,0-0.2,0C483,26.5,483,26.6,482.9,26.6L482.9,26.6z M488.3,25.9
			c-0.2,0.2-0.5,0.3-0.7,0.4c-0.2,0.1-0.5,0.1-0.8,0.1c-0.6,0-1.1-0.2-1.5-0.6c-0.4-0.4-0.6-0.9-0.6-1.5c0-0.7,0.2-1.2,0.5-1.6
			c0.4-0.4,0.9-0.6,1.5-0.6c0.6,0,1,0.2,1.3,0.5c0.3,0.3,0.5,0.8,0.5,1.4c0,0,0,0.1,0,0.1c0,0,0,0.1,0,0.1l-3,0v0
			c0,0.6,0.1,1,0.4,1.4c0.3,0.3,0.6,0.5,1.1,0.5c0.3,0,0.5,0,0.7-0.1c0.2-0.1,0.4-0.2,0.6-0.4c0,0.1,0,0.2,0,0.2c0,0,0,0.1,0,0.1
			L488.3,25.9L488.3,25.9z M485.6,23.9l2.3,0l0-0.1c0-0.4-0.1-0.8-0.3-1c-0.2-0.2-0.5-0.4-0.8-0.4c-0.3,0-0.6,0.1-0.8,0.4
			C485.7,23.1,485.6,23.4,485.6,23.9L485.6,23.9z M489.9,26.5c0-0.3,0.1-0.6,0.2-1.1c0.1-0.5,0.1-1,0.2-1.7c0-0.4,0.1-0.6,0.1-0.8
			c0-0.2,0-0.3,0-0.5c0.1,0,0.1,0,0.2,0c0.1,0,0.1,0,0.2,0c0.1,0,0.1,0,0.2,0c0.1,0,0.1,0,0.2,0c0,0.1-0.1,0.3-0.1,0.4
			c0,0.2-0.1,0.3-0.1,0.5c0.2-0.3,0.4-0.5,0.6-0.7c0.2-0.1,0.4-0.2,0.6-0.2c0,0,0.1,0,0.1,0c0.1,0,0.1,0,0.2,0.1
			c0,0.1,0,0.2-0.1,0.3c0,0.1,0,0.2-0.1,0.4l-0.1,0c-0.1,0-0.1-0.1-0.2-0.1c-0.1,0-0.1,0-0.2-0.1c-0.3,0-0.6,0.1-0.7,0.3
			c-0.2,0.3-0.3,0.7-0.4,1.3c0,0.4-0.1,0.7-0.1,1c0,0.3-0.1,0.6-0.1,0.8c-0.1,0-0.1,0-0.2,0c-0.1,0-0.1,0-0.2,0c-0.1,0-0.1,0-0.2,0
			C490,26.5,489.9,26.5,489.9,26.5L489.9,26.5z M495.5,25.4c-0.8-0.1-1.3-0.1-1.5,0c-0.2,0.1-0.4,0.3-0.5,0.5
			c-0.1,0.3-0.1,0.5,0,0.6c0.1,0.2,0.3,0.3,0.5,0.4c0.1,0,0.3,0,0.5,0c0.2,0,0.3-0.1,0.5-0.2c0.1,0,0.1-0.1,0.2-0.1
			c0,0,0.1-0.1,0.1-0.2l0,0L495.5,25.4L495.5,25.4z M495.1,27c-0.2,0.1-0.5,0.2-0.7,0.3c-0.2,0-0.5,0-0.7,0
			c-0.4-0.1-0.6-0.3-0.8-0.5c-0.2-0.2-0.2-0.5-0.1-0.8c0.1-0.3,0.2-0.5,0.4-0.7c0.2-0.1,0.5-0.2,0.8-0.2c0.1,0,0.3,0,0.6,0
			c0.5,0,0.8,0,1,0l0-0.2c0.1-0.4,0.1-0.7,0-0.9c-0.1-0.2-0.3-0.4-0.6-0.5c-0.2-0.1-0.5-0.1-0.7,0c-0.2,0.1-0.4,0.2-0.6,0.3l-0.1,0
			l0.1-0.4c0.2-0.1,0.5-0.2,0.7-0.2c0.3,0,0.5,0,0.8,0.1c0.5,0.1,0.8,0.3,0.9,0.6c0.2,0.3,0.2,0.7,0,1.2l0,0.1l-0.4,1.4l-0.1,0.2
			c-0.1,0.2-0.1,0.4,0,0.5c0,0.1,0.1,0.1,0.3,0.2c0,0,0.1,0,0.1,0c0,0,0,0,0.1,0l0,0.2l0,0c-0.3,0-0.5,0-0.7,0
			c-0.1,0-0.2-0.1-0.3-0.2C495.1,27.3,495.1,27.2,495.1,27L495.1,27z M497.2,28.2c0.9-1.9,1.7-4.1,2.3-6.1c0.2,0.1,0.4,0.2,0.7,0.3
			c-0.9,2-1.7,4.1-2.3,6.1C497.6,28.3,497.4,28.2,497.2,28.2L497.2,28.2z M504.8,27.7c-1.5-0.9-3.4,2.1-2,3
			C504.2,31.6,506.2,28.6,504.8,27.7L504.8,27.7z M503.7,31.6c0.2-0.2,0.3-0.5,0.5-0.7c-1,0.6-2.4,0.1-2.5-1.2
			c-0.4-2.8,3.9-3.8,3.9-1c0.6-0.9,1.1-1.8,1.6-2.7c0.2,0.2,0.4,0.3,0.6,0.4c-1.2,1.8-2.4,3.7-3.5,5.6
			C504.2,31.8,504,31.7,503.7,31.6L503.7,31.6z M508.3,34.7c-1.8-0.2-2.8-2.1-1.5-3.6c1.8-2,4.9,0.3,2.8,2.5l-2.2-2
			c-1.2,1.3-0.5,2.9,1.2,2.8C508.5,34.5,508.4,34.6,508.3,34.7L508.3,34.7z M507.6,31.4l1.7,1.6C510.7,31.4,509,30,507.6,31.4
			L507.6,31.4z M510.5,37.2c0.3-0.1,0.6-0.2,0.9-0.3c-0.9,1.2,0.2,3,1.7,2.1c1.3-0.9-0.7-2.8,0.9-3.9c1.5-0.9,2.7,0.6,2.9,1.9
			c-0.2,0-0.5,0.1-0.7,0.2c0.9-2.1-2.4-2.7-2-0.4c0.2,1,0.5,1.9-0.5,2.6C512,40.4,510.3,38.8,510.5,37.2L510.5,37.2z M515.7,42.4
			c-0.4-0.5-1-1.5-1.7-1.2c-1.1,0.5,0,2,0.8,1.6L515.7,42.4L515.7,42.4z M514.2,43.1c-1-0.3-1.9-1.9-0.6-2.5
			c1.4-0.7,1.6,1.3,2.5,1.6c0.7-0.3,1.2-0.7,0.8-1.5c-0.3-0.5-1-0.7-1.1-0.8l0.4-0.2c0.5,0.2,0.8,0.6,1.1,1.1
			c1.1,2.4-3.3,2.1-2.7,3.4l-0.1,0.1C514,44,513.6,43.5,514.2,43.1L514.2,43.1z M514.7,45.3c1.3-0.3,2.7-0.7,4-1.1
			c0,0.2,0.1,0.5,0.2,0.7c-0.2,0.1-0.5,0.1-0.7,0.2c1.6,0.4,1.8,2.4,0.1,2.9c-0.9,0.2-1.7,0.5-2.5,0.7c0-0.3-0.1-0.5-0.2-0.7
			c0.8-0.2,1.6-0.4,2.4-0.6c1.5-0.4,1.2-2.1-0.1-2.1c-0.8,0-2,0.5-2.8,0.7C514.8,45.8,514.8,45.6,514.7,45.3L514.7,45.3z
			 M519.5,49.1c0.1,0,0.2,0,0.4,0c0,0.2,0,0.4,0.1,0.6c0.3-0.1,0.7-0.1,1-0.2c0.1,0.2,0.2,0.5,0.3,0.7c-0.4,0-0.8,0.1-1.3,0.2
			c0.1,0.4,0.1,0.7,0.2,1.1c-0.1,0-0.2,0-0.4,0c0-0.4-0.1-0.7-0.2-1.1c-0.8,0.1-1.6,0.2-2.4,0.3c-1.9,0.3-0.3,1.3-0.9,1.6
			c-0.7-0.8-0.7-2,0.6-2.2c0.9-0.1,1.8-0.2,2.7-0.4C519.6,49.4,519.6,49.3,519.5,49.1L519.5,49.1z M518.6,54.9
			c-0.1-0.6-0.3-1.8-1.2-1.7c-1.3,0.1-0.8,1.9,0.1,1.8L518.6,54.9L518.6,54.9z M516.9,55c-0.8-0.7-1.1-2.4,0.3-2.5
			c1.6-0.1,1,1.8,1.7,2.4c0.7,0,1.3-0.2,1.3-1.1c0-0.6-0.7-1-0.7-1.2l0.5,0c0.4,0.4,0.5,0.9,0.6,1.4c0.2,2.6-3.8,0.7-3.8,2.1l-0.2,0
			C516.4,55.7,516.2,55.2,516.9,55L516.9,55z M516.4,59.4c1.8,1,3.8,1.7,5.6,2.5l0,0.1c-1.7,0.3-3.5,0.7-5.2,1.1
			c1.3,1.3,2.6,2.5,3.9,3.7l0,0.1c-2-0.3-4-0.6-6-0.9c0.1-0.2,0.2-0.5,0.2-0.8c1.4,0.3,2.9,0.6,4.3,0.7c-1.1-1.1-2.3-2.4-3.6-3.3
			l0-0.1c1.5,0,3.3-0.6,4.8-1c-1.3-0.6-2.7-1.2-4.1-1.6C516.3,59.8,516.4,59.6,516.4,59.4L516.4,59.4z M515,70.4
			c0.2-0.6,0.6-2-0.2-2.4c-1.3-0.6-1.6,1.5-0.8,1.9L515,70.4L515,70.4z M513.5,69.7c-0.4-1,0.1-3,1.5-2.4c1.4,0.7,0,2.3,0.3,3.2
			c1.1,0.5,2.2-0.8,1.5-1.9l0-0.1l0.4,0.2c0.3,1.2-0.8,3-2.2,2.4c-0.2-0.1-1.7-1-2-0.9c-0.2,0-0.2,0.2-0.3,0.4l-0.2,0
			C512.7,70.1,512.8,69.5,513.5,69.7L513.5,69.7z M511.9,71.3c1.1,0.8,2.2,1.7,3.4,2.3c-0.2,0.2-0.3,0.4-0.4,0.6
			c-0.2-0.2-0.5-0.4-0.8-0.6c0.4,0.6,0.5,1.2,0,1.7c-0.2-0.2-0.3-0.3-0.5-0.4l0-0.1c1.6-0.9-1.3-2.5-2.1-3
			C511.7,71.8,511.8,71.5,511.9,71.3L511.9,71.3z M510.1,73.9c1,0.9,2.1,1.8,3.1,2.7c-0.2,0.1-0.3,0.3-0.5,0.5
			c-1-0.9-2.1-1.8-3.1-2.7C509.9,74.3,510,74.2,510.1,73.9L510.1,73.9z M514.5,77.5c0.4,0.4-0.1,1.1-0.6,0.7
			C513.5,77.8,514,77.1,514.5,77.5L514.5,77.5z M508.6,78.5c0.4-0.5,1.1-1.4,0.5-2c-0.9-0.9-1.9,0.6-1.3,1.2L508.6,78.5L508.6,78.5z
			 M507.4,77.3c0-1.8,2.4-2.6,2.5-0.4c0,0.5-1,1.3-1.1,1.9c0.6,0.6,1.6,1.1,2,0c0.1-0.2,0-0.6,0.1-0.7l0.3,0.3
			c-0.1,0.5-0.3,1-0.7,1.3c-1.5,1.5-3.1-2.7-4.1-1.7l-0.1-0.1C506.5,77.4,506.8,76.9,507.4,77.3L507.4,77.3z M484.4,84.7
			c-0.3,0-0.5,0.1-0.6,0.3c-0.2,0.2-0.2,0.5-0.2,0.8c0,0.3,0.1,0.5,0.2,0.7c0.2,0.2,0.4,0.3,0.6,0.3c0.3,0,0.5-0.1,0.6-0.3
			c0.1-0.2,0.2-0.5,0.2-0.8c0-0.3-0.1-0.6-0.2-0.8C484.9,84.8,484.7,84.7,484.4,84.7L484.4,84.7z M483.4,88.8
			C483.4,88.8,483.4,88.7,483.4,88.8c0-0.1,0-0.1,0-0.1c0,0,0-0.1,0-0.1c0,0,0-0.1,0-0.1c0.1,0.1,0.2,0.1,0.3,0.2
			c0.1,0,0.2,0.1,0.3,0.1c0.2,0,0.3,0,0.5-0.1c0.1-0.1,0.3-0.2,0.4-0.4c0.1-0.2,0.2-0.4,0.3-0.7c0.1-0.3,0.1-0.5,0.1-0.8
			c0,0,0-0.1,0-0.1c0,0,0-0.1,0-0.1c-0.1,0.2-0.2,0.3-0.4,0.4c-0.2,0.1-0.4,0.1-0.6,0.1c-0.4,0-0.6-0.1-0.9-0.3
			c-0.2-0.2-0.3-0.5-0.3-0.9c0-0.4,0.1-0.7,0.4-1c0.3-0.3,0.6-0.4,1-0.4c0.4,0,0.8,0.2,1,0.5c0.2,0.3,0.4,0.8,0.4,1.3
			c0,0.8-0.2,1.4-0.5,1.9c-0.3,0.5-0.8,0.7-1.3,0.7c-0.1,0-0.2,0-0.3,0C483.6,88.8,483.5,88.8,483.4,88.8L483.4,88.8z M487.2,87.6
			c0,0.3,0.1,0.6,0.2,0.8c0.2,0.2,0.4,0.3,0.6,0.3c0.3,0,0.5-0.1,0.6-0.3c0.2-0.2,0.2-0.5,0.2-0.8c0-0.3-0.1-0.6-0.2-0.8
			c-0.1-0.2-0.3-0.3-0.6-0.3c-0.3,0-0.5,0.1-0.6,0.3C487.3,87,487.2,87.3,487.2,87.6L487.2,87.6z M487.1,86.8
			c0.1-0.2,0.3-0.3,0.5-0.4c0.2-0.1,0.4-0.1,0.6-0.1c0.4,0,0.6,0.1,0.9,0.3c0.2,0.2,0.3,0.5,0.3,0.9c0,0.4-0.1,0.8-0.4,1
			c-0.3,0.3-0.6,0.4-1,0.4c-0.4,0-0.8-0.2-1-0.5c-0.2-0.3-0.4-0.8-0.4-1.3c0-0.8,0.2-1.4,0.5-1.9c0.4-0.5,0.8-0.7,1.4-0.7
			c0.1,0,0.1,0,0.2,0c0.1,0,0.1,0,0.2,0.1c0,0,0,0,0,0.1c0,0,0,0.1,0,0.1c0,0,0,0,0,0.1c0,0,0,0.1,0,0.1c-0.1-0.1-0.1-0.1-0.2-0.1
			c-0.1,0-0.2,0-0.3,0c-0.4,0-0.6,0.2-0.9,0.6C487.3,85.7,487.2,86.2,487.1,86.8L487.1,86.8z M490,86.7c0-0.7,0.1-1.3,0.4-1.6
			c0.3-0.4,0.6-0.6,1.1-0.6c0.5,0,0.9,0.2,1.1,0.5c0.2,0.4,0.4,0.9,0.4,1.6c0,0.7-0.1,1.3-0.4,1.6c-0.3,0.4-0.6,0.6-1.1,0.6
			c-0.5,0-0.9-0.2-1.1-0.6C490.1,88,490,87.4,490,86.7L490,86.7z M490.6,86.7c0,0.7,0.1,1.2,0.2,1.5c0.2,0.3,0.4,0.5,0.7,0.5
			c0.3,0,0.6-0.1,0.7-0.4c0.1-0.3,0.2-0.8,0.2-1.6c0-0.7-0.1-1.1-0.2-1.4c-0.2-0.3-0.4-0.5-0.7-0.5c-0.3,0-0.6,0.2-0.7,0.5
			C490.6,85.5,490.6,86,490.6,86.7L490.6,86.7z M482.9,62C482.9,62,482.9,62,482.9,62C482.9,62.1,482.9,62.1,482.9,62
			C482.9,62.1,482.9,62.1,482.9,62c-0.1,0.1-0.1,0.1-0.1,0.1c0,0,0,0,0,0c0,0,0,0,0,0c0,0,0,0,0,0c0,0,0,0,0,0c0,0,0,0,0,0
			c0,0,0,0,0,0c0,0,0,0,0,0c0,0,0,0,0,0c0,0,0,0,0,0c0,0,0,0,0,0c0,0,0,0.1-0.1,0.1c0,0,0,0,0,0c0,0,0,0,0,0c0,0,0,0,0,0
			c0,0,0,0,0,0c0,0,0,0,0,0c0,0,0,0,0,0c0,0,0,0,0,0c0,0,0,0,0,0c0,0,0,0,0,0c-0.1,0.3-0.1,0.6-0.1,0.9c0,0,0,0,0,0c0,0,0,0,0,0
			c0,0,0,0,0,0c0,0,0,0,0,0c0,0.2,0.1,0.4,0.2,0.5c0,0,0,0,0,0c0,0,0,0,0,0c0,0,0,0.1,0.1,0.1c0,0,0,0,0,0c0,0,0,0,0,0c0,0,0,0,0,0
			c0,0,0,0,0,0c0,0,0,0,0,0c0,0,0,0,0,0c0,0,0,0,0,0L482.9,62L482.9,62z M483,64.1C483,64.1,483,64.1,483,64.1L483,64.1L483,64.1z
			 M483,64.2C483,64.2,483,64.2,483,64.2C483,64.2,483,64.2,483,64.2C483,64.2,483,64.2,483,64.2C483,64.2,483,64.2,483,64.2
			C483,64.2,483,64.2,483,64.2C483,64.2,483,64.2,483,64.2C483,64.2,483.1,64.2,483,64.2C483.1,64.2,483.1,64.2,483,64.2
			C483.1,64.2,483.1,64.2,483,64.2C483.1,64.2,483.1,64.2,483,64.2C483.1,64.2,483.1,64.2,483,64.2C483.1,64.2,483.1,64.2,483,64.2
			C483.1,64.2,483.1,64.2,483,64.2C483.1,64.2,483.1,64.2,483,64.2C483.1,64.2,483.1,64.2,483,64.2C483.1,64.2,483.1,64.2,483,64.2
			C483.1,64.2,483.1,64.2,483,64.2C483.1,64.2,483.1,64.2,483,64.2C483.1,64.2,483.1,64.2,483,64.2C483.1,64.2,483.1,64.2,483,64.2
			C483.1,64.2,483.1,64.2,483,64.2c0.1,0.1,0.1,0.1,0.1,0.1c0,0,0,0,0,0c0,0,0,0,0,0c0,0,0,0,0,0c0,0,0,0,0,0c0,0,0,0,0,0
			c0,0,0,0,0,0c0,0,0,0,0,0c0,0,0,0,0,0c0,0,0,0,0,0c0,0,0,0,0,0c0,0,0,0,0,0c0,0,0,0,0,0c0,0,0,0,0,0c0,0,0,0,0,0c0,0,0,0,0,0
			c0.1,0.1,0.1,0.2,0.2,0.4c0,0.1,0,0.1,0.1,0.2c0,0,0,0,0,0c0,0,0,0,0,0c0,0,0,0,0,0.1c0,0,0,0,0,0c0,0,0,0,0,0c0,0,0,0,0,0
			c0,0,0,0,0,0.1c0,0,0,0,0,0c0,0,0,0,0,0.1c0.1,0.5,0,0.9-0.1,1.2l0-0.1c0,0,0,0,0,0c-0.2-0.3-0.5-0.6-0.8-0.8
			c-0.2-0.2-0.5-0.4-0.8-0.5c-1-0.6-2.2-1.1-2.9-1.8c-0.2-0.2-0.3-0.4-0.5-0.7c-0.3-0.6-0.4-1.3-0.2-1.8c0.1-0.2,0.2-0.6,1-1.1
			c0.6-0.5,1.4-0.8,2.3-0.9c1.1-0.1,2.1,0.3,3.5,0.6c1,1,1.9,1.9,3,2.9l0,0c0,0,0,0,0,0l-0.5,0.5c-1.1-0.7-2.1-1.2-2.9-1.3
			c-0.7-0.1-1.3,0-1.6,0.4L483,64.2L483,64.2z M474.2,73.7l0.1,1l-0.1,0c0-0.2-0.1-0.3-0.1-0.5c-0.1-0.1-0.1-0.2-0.2-0.3
			c-0.1-0.1-0.2-0.1-0.3-0.2c-0.1,0-0.2,0-0.2,0c-0.1,0.1-0.1,0.1-0.1,0.2c0,0.1,0,0.2,0.1,0.2c0.1,0.1,0.2,0.3,0.5,0.5
			c0.2,0.2,0.4,0.3,0.4,0.4c0.1,0.1,0.1,0.2,0.2,0.3c0,0.1,0.1,0.2,0.1,0.3c0,0.2,0,0.4-0.2,0.5c-0.1,0.1-0.2,0.1-0.5,0.1
			c-0.1,0-0.1,0-0.2-0.1c0,0-0.1-0.1-0.2-0.1c-0.1-0.1-0.2-0.1-0.2-0.1c0,0,0,0-0.1,0c0,0,0,0.1,0,0.1l-0.1,0l-0.1-0.9l0.1,0
			c0,0.2,0.1,0.4,0.1,0.5c0.1,0.1,0.1,0.2,0.2,0.3c0.1,0.1,0.2,0.1,0.3,0.2c0.1,0,0.2,0,0.3,0c0.1-0.1,0.1-0.1,0.1-0.3
			c0-0.1,0-0.1-0.1-0.2c0-0.1-0.1-0.1-0.1-0.2c0-0.1-0.2-0.2-0.4-0.3c-0.2-0.2-0.3-0.3-0.4-0.4c-0.1-0.1-0.2-0.2-0.2-0.3
			c0-0.1-0.1-0.2-0.1-0.3c0-0.2,0-0.4,0.2-0.5c0.1-0.1,0.3-0.1,0.4-0.1c0.1,0,0.2,0.1,0.4,0.2c0.1,0,0.1,0.1,0.1,0.1c0,0,0,0,0.1,0
			C474.1,73.8,474.1,73.8,474.2,73.7L474.2,73.7L474.2,73.7z M484.8,72.9l0,1l-0.1,0c0-0.2-0.1-0.3-0.1-0.4
			c-0.1-0.1-0.1-0.2-0.2-0.2c-0.1-0.1-0.2-0.1-0.3-0.1c-0.1,0-0.2,0.1-0.3,0.1c-0.1,0.1-0.1,0.2-0.1,0.3c0,0.1,0,0.1,0.1,0.2
			c0.1,0.1,0.2,0.2,0.5,0.3c0.2,0.1,0.4,0.2,0.5,0.3c0.1,0.1,0.1,0.1,0.2,0.2c0,0.1,0.1,0.2,0.1,0.3c0,0.2-0.1,0.4-0.2,0.6
			c-0.1,0.2-0.3,0.2-0.5,0.3c-0.1,0-0.1,0-0.2,0c0,0-0.1,0-0.2-0.1c-0.1,0-0.2,0-0.2,0c0,0,0,0-0.1,0c0,0,0,0.1,0,0.1l-0.1,0l0-0.9
			l0.1,0c0,0.2,0.1,0.3,0.1,0.4c0.1,0.1,0.1,0.2,0.2,0.2c0.1,0.1,0.2,0.1,0.3,0.1c0.1,0,0.2-0.1,0.3-0.2c0.1-0.1,0.1-0.2,0.1-0.3
			c0-0.1,0-0.1,0-0.2c0-0.1-0.1-0.1-0.1-0.2c0,0-0.2-0.1-0.4-0.2c-0.2-0.1-0.3-0.2-0.4-0.3c-0.1-0.1-0.1-0.2-0.2-0.2
			c0-0.1-0.1-0.2-0.1-0.3c0-0.2,0.1-0.4,0.2-0.5c0.1-0.2,0.3-0.2,0.5-0.3c0.1,0,0.3,0,0.4,0.1c0.1,0,0.1,0,0.1,0c0,0,0,0,0.1,0
			C484.7,73,484.7,73,484.8,72.9L484.8,72.9L484.8,72.9z M488,74.5l0,0.8c0,0.2,0,0.3,0,0.3c0,0.1,0.1,0.1,0.2,0.1l0.1,0l0,0.1l-1,0
			l-0.8,0l0-0.1c0.1,0,0.2,0,0.2-0.1c0,0,0-0.1,0-0.1c0-0.1,0-0.1-0.1-0.3l-0.1-0.4l-0.9,0l-0.1,0.4c0,0.1-0.1,0.2-0.1,0.2
			c0,0,0,0.1,0,0.1c0,0,0.1,0,0.2,0.1l0,0.1l-0.7,0l0-0.1c0.1,0,0.2,0,0.2-0.1c0.1-0.1,0.1-0.2,0.2-0.4l0.8-2.2l0.1,0l0.8,2.2
			c0.1,0.2,0.1,0.3,0.2,0.3c0.1,0.1,0.1,0.1,0.2,0.1v0c0.1,0,0.1,0,0.2-0.1c0,0,0-0.1,0-0.3l0.1-1.7c0-0.2,0-0.3,0-0.3
			c0-0.1-0.1-0.1-0.2-0.1l-0.1,0l0-0.1l0.9,0c0.2,0,0.4,0,0.5,0.1c0.1,0.1,0.2,0.1,0.3,0.3c0.1,0.1,0.1,0.3,0.1,0.4
			c0,0.2-0.1,0.4-0.2,0.5c-0.1,0.1-0.3,0.2-0.5,0.2c-0.1,0-0.1,0-0.2,0C488.2,74.5,488.1,74.5,488,74.5L488,74.5z M490,75.8l0,0.1
			l-1-0.1l0-0.1l0.1,0c0.1,0,0.2,0,0.2-0.1c0,0,0-0.1,0.1-0.3l0.2-1.7c0-0.1,0-0.2,0-0.3c0,0,0,0,0-0.1c0,0-0.1-0.1-0.1-0.1l-0.1,0
			l0-0.1l1,0.1l0,0.1l-0.1,0c-0.1,0-0.2,0-0.2,0.1c0,0-0.1,0.1-0.1,0.3l-0.2,1.7c0,0.1,0,0.2,0,0.3c0,0,0,0.1,0.1,0.1c0,0,0,0,0.1,0
			c0,0,0,0,0.1,0L490,75.8L490,75.8z M491.2,73.4l-0.1,1l0.5,0.1c0.1,0,0.2,0,0.3,0c0.1,0,0.1-0.2,0.1-0.3l0.1,0l-0.1,1l-0.1,0
			c0-0.1,0-0.2,0-0.3c0,0,0-0.1-0.1-0.1c0,0-0.1-0.1-0.2-0.1l-0.5-0.1l-0.1,0.9c0,0.1,0,0.2,0,0.2c0,0,0,0,0,0.1c0,0,0.1,0,0.1,0
			l0.4,0.1c0.1,0,0.2,0,0.3,0c0.1,0,0.1-0.1,0.2-0.2c0.1-0.1,0.2-0.2,0.3-0.3l0.1,0l-0.3,0.7l-1.8-0.3l0-0.1l0.1,0
			c0.1,0,0.1,0,0.1,0c0,0,0.1,0,0.1-0.1c0,0,0-0.1,0-0.2l0.2-1.8c0-0.2,0-0.3,0-0.3c0-0.1-0.1-0.1-0.2-0.1l-0.1,0l0-0.1l1.8,0.3
			l0,0.6l-0.1,0c0-0.1,0-0.3,0-0.3c0-0.1-0.1-0.1-0.1-0.1c0,0-0.1-0.1-0.2-0.1L491.2,73.4L491.2,73.4z M496.8,76.7l0-0.1l0.1,0
			c0.1,0,0.2,0,0.2-0.1c0,0,0.1-0.1,0.1-0.3l0.2-1.8c0-0.1,0-0.2,0-0.3c0,0,0-0.1-0.1-0.1c0,0-0.1,0-0.1,0l-0.1,0l0-0.1l1-0.1l0,0.1
			l-0.1,0c-0.1,0-0.2,0-0.2,0.1c0,0-0.1,0.1-0.1,0.3l-0.2,1.8c0,0.1,0,0.2,0,0.3c0,0,0,0.1,0.1,0.1c0,0,0.1,0,0.1,0l0.1,0v0
			c0.1,0,0.2-0.1,0.2-0.1c0.1-0.1,0.1-0.2,0.2-0.3l0.6-2.3l0,0l0-0.1l1.3-0.4l0.1,0.6l-0.1,0c0-0.1-0.1-0.2-0.1-0.3
			c0,0-0.1-0.1-0.1-0.1c0,0-0.1,0-0.2,0l-0.4,0.1l0.2,1l0.4-0.1c0.1,0,0.1-0.1,0.2-0.1c0-0.1,0-0.2,0-0.3l0.1,0l0.1,0.9l-0.1,0
			c0-0.1-0.1-0.2-0.1-0.3c0,0,0-0.1-0.1-0.1c0,0-0.1,0-0.2,0l-0.4,0.1l0.1,0.8c0,0.1,0,0.2,0,0.2c0,0,0,0,0,0c0,0,0,0,0.1,0L500,76
			c0.1,0,0.1,0,0.2-0.1c0,0,0.1-0.1,0.1-0.1c0-0.1,0.1-0.2,0.1-0.4l0.1,0l-0.1,0.7l-1.3,0.4l0-0.1l0.1,0c0,0,0.1,0,0.1-0.1
			c0,0,0-0.1,0-0.1c0,0,0-0.1,0-0.3l-0.1-0.8l-0.5,0.2l-0.3,0.9c0,0.1-0.1,0.2,0,0.2c0,0,0.1,0,0.2,0l0,0.1
			C497.9,76.7,497.5,76.7,496.8,76.7L496.8,76.7z M492.6,73.5l0.6,0.1l1,2.1l0.2-1.5c0-0.2,0-0.3,0-0.3c0,0-0.1-0.1-0.2-0.1l-0.1,0
			l0-0.1l0.8,0.1l0,0.1l-0.1,0c-0.1,0-0.1,0-0.2,0.1c0,0,0,0.1-0.1,0.3l-0.3,2.3l-0.1,0l-1.1-2.3l-0.2,1.6c0,0.2,0,0.3,0,0.3
			c0,0.1,0.1,0.1,0.2,0.1l0.1,0l0,0.1l-0.8-0.1l0-0.1l0.1,0c0.1,0,0.1,0,0.2-0.1c0,0,0.1-0.1,0.1-0.3L493,74
			c-0.1-0.1-0.1-0.2-0.1-0.2c0,0-0.1-0.1-0.1-0.1c0,0-0.1,0-0.1,0L492.6,73.5L492.6,73.5z M497,73.9l0,0.7l-0.1,0c0-0.1,0-0.2,0-0.3
			c0-0.1-0.1-0.1-0.1-0.2c-0.1,0-0.1-0.1-0.2-0.1l-0.3,0l-0.1,2.1c0,0.2,0,0.3,0,0.3c0,0.1,0.1,0.1,0.2,0.1l0.1,0l0,0.1l-1,0l0-0.1
			l0.1,0c0,0,0.1,0,0.1,0c0,0,0.1,0,0.1-0.1c0,0,0-0.1,0.1-0.3l0.1-2.1l-0.3,0c-0.1,0-0.2,0-0.2,0c-0.1,0-0.1,0.1-0.2,0.1
			c0,0.1-0.1,0.2-0.1,0.3l-0.1,0l0.1-0.7L497,73.9L497,73.9z M499,74l-0.1,0.5l-0.1,0.5l0.4-0.1l-0.1-0.7C499,74.1,499,74,499,74
			L499,74z M486.5,74.6l-0.4-1l-0.4,1L486.5,74.6L486.5,74.6z M488,74.3c0.1,0,0.1,0,0.1,0c0,0,0.1,0,0.1,0c0.1,0,0.2,0,0.3-0.1
			c0.1-0.1,0.1-0.2,0.1-0.4c0-0.1,0-0.2-0.1-0.3c0-0.1-0.1-0.2-0.2-0.2c-0.1-0.1-0.2-0.1-0.2-0.1c-0.1,0-0.1,0-0.2,0L488,74.3
			L488,74.3z M482,73.4l0.1,1l-0.1,0c0-0.2-0.1-0.3-0.2-0.4c-0.1-0.1-0.1-0.2-0.3-0.2c-0.1,0-0.2,0-0.3,0c-0.1,0-0.2,0.1-0.3,0.2
			c-0.1,0.1-0.1,0.2-0.1,0.3c0,0.1,0,0.1,0.1,0.2c0.1,0.1,0.3,0.2,0.5,0.3c0.2,0.1,0.4,0.2,0.5,0.2c0.1,0.1,0.2,0.1,0.2,0.2
			c0.1,0.1,0.1,0.2,0.1,0.3c0,0.2,0,0.4-0.1,0.6c-0.1,0.2-0.3,0.3-0.5,0.3c-0.1,0-0.1,0-0.2,0c0,0-0.1,0-0.2,0c-0.1,0-0.2,0-0.2,0
			c0,0,0,0-0.1,0c0,0,0,0.1,0,0.1l-0.1,0l-0.1-0.9l0.1,0c0.1,0.2,0.1,0.3,0.2,0.4c0.1,0.1,0.1,0.1,0.2,0.2c0.1,0,0.2,0.1,0.3,0
			c0.1,0,0.2-0.1,0.3-0.2c0.1-0.1,0.1-0.2,0.1-0.3c0-0.1,0-0.1-0.1-0.2c0-0.1-0.1-0.1-0.2-0.2c0,0-0.2-0.1-0.4-0.2
			c-0.2-0.1-0.4-0.2-0.5-0.2c-0.1-0.1-0.2-0.1-0.2-0.2c-0.1-0.1-0.1-0.2-0.1-0.3c0-0.2,0-0.4,0.1-0.5c0.1-0.2,0.3-0.3,0.4-0.3
			c0.1,0,0.3,0,0.4,0c0.1,0,0.1,0,0.1,0c0,0,0,0,0.1,0C481.9,73.5,481.9,73.5,482,73.4L482,73.4L482,73.4z M479.5,74.1l0,1l0.5-0.1
			c0.1,0,0.2-0.1,0.2-0.1c0.1-0.1,0.1-0.2,0.1-0.3l0.1,0l0,1l-0.1,0c0-0.1,0-0.2-0.1-0.3c0,0-0.1-0.1-0.1-0.1c0,0-0.1,0-0.2,0
			l-0.5,0.1l0,0.9c0,0.1,0,0.2,0,0.2c0,0,0,0,0,0c0,0,0.1,0,0.1,0l0.4-0.1c0.1,0,0.2,0,0.3-0.1c0.1,0,0.1-0.1,0.2-0.1
			c0.1-0.1,0.1-0.2,0.2-0.4l0.1,0l-0.2,0.7l-1.8,0.3l0-0.1l0.1,0c0.1,0,0.1,0,0.1-0.1c0,0,0.1-0.1,0.1-0.1c0,0,0-0.1,0-0.3l-0.1-1.7
			c0-0.2,0-0.3-0.1-0.3c0,0-0.1-0.1-0.2,0l-0.1,0l0-0.1l1.8-0.3l0.1,0.6l-0.1,0c0-0.1-0.1-0.2-0.1-0.3c0,0-0.1-0.1-0.1-0.1
			c0,0-0.1,0-0.2,0L479.5,74.1L479.5,74.1z M476.6,77.1l0-0.1l0.1,0c0.1,0,0.1-0.1,0.2-0.1c0,0,0-0.1,0-0.3l-0.1-1.7
			c0-0.2,0-0.3-0.1-0.3c0-0.1-0.1-0.1-0.2-0.1l-0.1,0l0-0.1l0.9-0.1c0.3,0,0.6,0,0.7,0c0.2,0.1,0.3,0.2,0.4,0.4
			c0.1,0.2,0.2,0.4,0.2,0.7c0,0.4-0.1,0.7-0.2,1c-0.2,0.3-0.5,0.5-0.9,0.6L476.6,77.1L476.6,77.1z M477.3,76.8c0.1,0,0.2,0,0.3,0
			c0.2,0,0.4-0.2,0.6-0.4c0.1-0.2,0.2-0.5,0.2-0.9c0-0.4-0.1-0.7-0.3-0.8c-0.2-0.2-0.4-0.3-0.6-0.2c-0.1,0-0.2,0-0.3,0.1L477.3,76.8
			L477.3,76.8z M475.1,74.4l0.1,1l0.5,0.1c0.1,0,0.2,0,0.3,0c0.1-0.1,0.1-0.2,0.1-0.3l0.1,0l0.1,1l-0.1,0c0-0.1,0-0.2-0.1-0.3
			c0,0-0.1-0.1-0.1-0.1c0,0-0.1-0.1-0.2-0.1l-0.5-0.1l0.1,0.9c0,0.1,0,0.2,0,0.2c0,0,0,0,0.1,0.1c0,0,0.1,0,0.1,0l0.4,0.1
			c0.1,0,0.2,0,0.3,0c0.1,0,0.1,0,0.2-0.1c0.1-0.1,0.1-0.2,0.2-0.3l0.1,0l-0.2,0.7l-1.8-0.2l0-0.1l0.1,0c0.1,0,0.1,0,0.1,0
			c0,0,0.1,0,0.1-0.1c0,0,0-0.1,0-0.3l-0.1-1.7c0-0.2,0-0.3-0.1-0.3c0-0.1-0.1-0.1-0.2-0.1l-0.1,0l0-0.1l1.8,0.2l0.1,0.6l-0.1,0
			c0-0.1-0.1-0.3-0.1-0.3c0-0.1-0.1-0.1-0.1-0.1c0,0-0.1,0-0.2-0.1L475.1,74.4L475.1,74.4z M496.6,45.5h-0.5l0,1.2h-0.4l0-1.2h-0.5
			l0,1.2h-0.4l0-1.2h-0.5l0,1.2h-0.3l0-1.4h2.8l-0.1,1.4h-0.3L496.6,45.5L496.6,45.5z M494.6,69.7l-0.1,2.7c-0.1,0-0.2,0-0.2,0
			l0.1-2.5C494.4,69.8,494.5,69.8,494.6,69.7L494.6,69.7z M494.8,72.5l0.1-3c0.1-0.1,0.1-0.1,0.2-0.2l0.2,0.1l-0.2,3
			C494.9,72.5,494.9,72.5,494.8,72.5L494.8,72.5z M478.8,69.6C478.8,69.6,478.8,69.7,478.8,69.6C478.8,69.7,478.8,69.6,478.8,69.6
			L478.8,69.6z M478.9,69.7l0.1,2.7c0.1,0,0.2,0,0.2,0l-0.1-2.5C479.1,69.8,479,69.8,478.9,69.7L478.9,69.7z M478.7,72.5l-0.1-3
			c0,0,0,0,0,0c-0.1-0.1-0.1-0.1-0.2-0.2l-0.2,0.1l0.2,3.1C478.5,72.5,478.6,72.5,478.7,72.5L478.7,72.5z M479.4,70.1l0.1,2.3
			c0.1,0,0.1,0,0.2,0l-0.1-2.2C479.5,70.1,479.5,70.1,479.4,70.1L479.4,70.1z M479.9,70.3l0.1,2c0.1,0,0.1,0,0.2,0l0-1.8
			C480,70.4,479.9,70.4,479.9,70.3L479.9,70.3z M493.6,70.3l-0.1,2c-0.1,0-0.1,0-0.2,0l0-1.8C493.5,70.4,493.5,70.4,493.6,70.3
			L493.6,70.3z M493.8,72.3l0.1-2.2c0.1,0,0.1-0.1,0.2-0.1l-0.1,2.3C493.9,72.3,493.9,72.3,493.8,72.3L493.8,72.3z M476.9,45.4h0.5
			l0,1.2h0.4l0-1.2h0.5l0,1.2h0.4l0-1.2h0.5l0,1.2h0.2l0-1.4h-2.8l0.1,1.4h0.3L476.9,45.4L476.9,45.4z M485.6,45.4h0.5l0,1.2h0.4
			l0-1.2h0.5l0,1.2h0.4l0-1.2h0.5l0,1.2h0.3l0-1.4h-2.8l0,1.4h0.3L485.6,45.4L485.6,45.4z M481.5,47.8c-0.2,0.5-0.5,0.7-1.2,1.1
			c-0.3,0.2-0.6,0.6-0.8,1.1c-0.3,0.5-0.6,0.8-1.1,0.8c-0.8,0.1-1.6,0.5-1.5,1.6c0.1,1.3,1.7,2.5,3.3,2.2c-0.5-0.2-0.8-0.7-0.8-1.2
			c0-0.2,0.1-0.1,0.2,0c0.1,0.2,0.6,0.5,1.2,0.5c-0.7-0.7-0.6-1.3-0.5-1.7c0.1-0.2,0.2-0.1,0.2,0c0,0.1,0.1,0.3,0.2,0.4
			c0.1,0.2,0.5,0.5,0.8,0.7c-0.3-0.5-0.3-1,0-1.4c0.1-0.2,0.3-0.1,0.2,0c0,0.1,0.2,0.8,0.7,1c-0.1-0.6,0.2-1.3,0.3-1.6
			c0.5-1-0.2-1.6-0.3-1.7c-0.1,0.3-0.4,0.6-0.8,1c-0.2,0.2-0.4,0.4-0.6,0.7c-0.1,0.2-0.3,0.1-0.2,0c0-0.7,0.2-1.1,0.3-1.2
			c0.1-0.2,0.2-0.4,0.3-0.6C481.9,48.9,482.1,48.3,481.5,47.8L481.5,47.8z M471.3,71.3c-0.2-0.9,0.3-1.5,0.8-1.9
			c0.8-0.4,1.7-0.8,2.7-1.1c0.7-0.2,1.4-0.5,2.1-0.8c0.3,0.5,0.8,1.1,1.2,1.6c-0.8,0.5-1.6,1-2.4,1.6c-0.9,0.7-1.3,1.3-1.4,2
			C473.8,72.6,472.8,72.4,471.3,71.3L471.3,71.3z M502.2,71.3c0.2-1-0.2-1.5-0.8-1.8c-0.8-0.4-1.7-0.8-2.7-1.1
			c-0.7-0.2-1.4-0.5-2.1-0.8c-0.3,0.5-0.7,1.1-1.2,1.6c0.8,0.5,1.6,1,2.4,1.6c0.9,0.7,1.3,1.3,1.4,2
			C499.8,72.5,500.7,72.3,502.2,71.3L502.2,71.3z M490.4,63.7l-0.4,0.4c0.3,0.3,0.6,0.9,0.8,1.8c0.3,0.8,0.4,1.5,1.3,1.7
			c0.6,0.2,1.3,0.3,2.2,0.3l0,0l0,0c0-0.8,0-1.6-0.1-2.2c-0.2-0.9-0.8-1.1-1.6-1.5c-0.9-0.3-1.4-0.6-1.7-1L490.4,63.7L490.4,63.7z
			 M487.6,63.1l2.6-2.3l1.1,0.3l-3.4,3.1L487.6,63.1L487.6,63.1z M482.7,57.2l2-1.8c1.4,2,2.9,3.9,4.6,5.8l-1.1,1
			C486.2,60.3,484.4,58.7,482.7,57.2L482.7,57.2z M481.6,55.3c0.7-0.5,1.6-1.6,2.5-2.2c0.2-0.1,0.4-0.1,0.5-0.1
			c0.1,0.1,0.4,0.3,0.5,0.6c0,0.1,0,0.2-0.1,0.3c-0.1,0.2-0.4,0.5-0.6,0.7c-0.6,0.5-1.2,1.2-1.9,1.7c-0.4,0.4-0.8,0.7-1.1,0.9
			c-0.3,0.2-0.4,0.2-0.5,0.1c-0.2-0.1-0.3-0.3-0.4-0.4c-0.2-0.2-0.1-0.3,0-0.5C480.7,56.2,481.4,55.4,481.6,55.3L481.6,55.3z
			 M489.2,64.9l0.7-0.6c0.2,0.2,0.4,0.5,0.6,1.2c0.2,0.6,0.3,1.3,0.8,1.9c0,0.3-0.3,0.7-0.7,0.8c-0.4,0.1-0.8-0.1-1.7-0.5
			c-0.7-0.3-1.3-0.2-1.6,0.2c-0.1-0.5-0.1-0.8,0.3-0.9c0.5-0.2,0.9-0.1,1.5-0.3c0.4-0.2,0.5-0.3,0.5-0.8
			C489.6,65.5,489.5,65.2,489.2,64.9L489.2,64.9z M484.9,54.9c-0.1,0.1-0.2,0.2-0.3,0.3c-0.6,0.5-1.6,1.5-2.1,1.9
			c-0.1,0.1-0.2,0.1-0.2,0.2c-0.2,0.1-0.4,0-0.5-0.1c0,0,0.2-0.2,0.6-0.5c0.4-0.4,1-0.9,1.8-1.7c0.2-0.2,0.4-0.4,0.6-0.6
			c0,0.1,0.1,0.1,0.1,0.2C485,54.7,485,54.8,484.9,54.9L484.9,54.9z M480.5,55.4c0.1-0.1,0.2-0.2,0.4-0.3c0.6-0.5,1.6-1.5,2.1-1.9
			c0.1-0.1,0.2-0.1,0.2-0.2c0.2-0.1,0.4,0,0.5,0.1c0,0-0.2,0.2-0.6,0.5c-0.4,0.4-1,0.9-1.8,1.7c-0.2,0.2-0.4,0.4-0.6,0.6
			c0-0.1-0.1-0.1-0.1-0.2C480.4,55.6,480.5,55.5,480.5,55.4L480.5,55.4z M491.6,62.4l-2.6,2.3l-1.1-0.3l3.4-3.1L491.6,62.4
			L491.6,62.4z M489.5,61l0.5-0.4c-0.6-1.2-1-2.2-1.1-3c-0.1-0.7,0.1-1.3,0.5-1.6c0.5-0.3,1-0.4,1.4-0.2c0.4,0.1,0.7,0.4,0.8,0.6
			c0.2,0.2,0.4,0.4,0.9,0.5c0.5,0.1,0.9,0.1,1.2,0l0,0c0,0,0,0,0,0c0,0,0,0,0,0c-0.3-0.2-0.5-0.5-0.6-0.8c0,0,0,0,0,0c0,0,0,0,0,0
			c0,0,0,0,0,0c0,0,0,0,0,0c0,0,0,0,0,0c0,0,0,0,0,0c0,0,0,0,0,0c0,0,0,0,0,0c-0.2-0.3-0.3-0.5-0.5-0.8c-0.5-1.1-0.8-2.2-1.5-3
			c-0.1-0.2-0.4-0.4-0.6-0.5c-0.5-0.3-1.2-0.5-1.8-0.3c-0.2,0-0.6,0.2-1.1,0.9c-0.5,0.6-0.9,1.3-1,2.2c-0.2,1,0,2.2,0.3,3.5
			C487.8,59,488.5,59.9,489.5,61L489.5,61C489.5,61,489.5,61,489.5,61L489.5,61z M483,64.1C483,64.1,483,64.1,483,64.1L483,64.1
			L483,64.1z M491.7,62.5l-0.7,0.6c0.2,0.2,0.5,0.4,1.2,0.7c0.6,0.2,1.3,0.4,1.8,0.9c0.3,0,0.7-0.2,0.9-0.6c0.1-0.4,0-0.8-0.3-1.7
			c-0.2-0.7-0.1-1.3,0.3-1.6c-0.5-0.2-0.8-0.1-0.9,0.3c-0.2,0.4-0.2,0.9-0.5,1.4c-0.2,0.4-0.4,0.4-0.8,0.4
			C492.3,63,492,62.8,491.7,62.5L491.7,62.5z M501,65c-0.7-0.1-1.4,0-2.1,0.2c-0.7,0.2-1.2,0.4-1.8,0.7l-0.1,1.1
			c0,0-0.1,0.2-0.1,0.3c0.8,0.4,1.6,0.7,2.5,1c0.1-0.4,0.2-0.7,0.5-1.3C500.2,66.2,500.7,65.6,501,65L501,65z M481.3,47.6
			c0-0.1,0.1-0.1,0.2,0c0.2,0.2,0.5,0.5,0.5,0.8c0.1,0.3-0.1,0.7-0.6,1.7c-0.2,0.5-0.3,0.6-0.3,0.9c0.1-0.3,0.5-0.6,0.8-0.9
			c0.1-0.2,0.3-0.3,0.3-0.5c0-0.2,0.2-0.3,0.3-0.1c0.7,0.8,0.5,1.3,0.4,1.6c-0.3,0.8-0.6,1.3-0.4,1.8c0,0.1,0,0.2-0.2,0.2
			c-0.5-0.1-0.8-0.5-0.9-1c-0.2,0.4-0.1,0.8,0.1,1.2c0.1,0.1,0,0.2-0.1,0.2c-0.6-0.1-1-0.5-1.2-1c-0.1,0.5,0.1,1,0.6,1.4
			c0.2,0.1,0.1,0.3-0.1,0.3c-0.7,0-1.1-0.3-1.3-0.4c0.1,0.3,0.2,0.6,0.8,0.9c0,0,0.1,0,0.1,0c0.1,0,0.1,0.2-0.1,0.2
			c-0.6,0.2-1,0.1-1.5,0c-1.1-0.3-1.7-0.9-2.1-1.7c-0.3-0.9-0.1-1.6,0.4-2c0.4-0.3,0.8-0.3,1.2-0.4c0.3-0.1,0.7-0.4,0.9-0.9
			c0.2-0.5,0.5-0.9,1-1.1c0.3-0.2,0.5-0.3,0.6-0.4C481.2,48,481.2,47.8,481.3,47.6L481.3,47.6z M483.9,53c-0.3-0.4-0.7-0.3-1,0
			l-1.2,1v0l-1.2,1.1c-0.4,0.3-0.5,0.7-0.1,1c-0.3,0.3-0.4,0.6-0.2,0.9c0.1,0.2,0.3,0.4,0.5,0.5c0.2,0.1,0.4,0.2,0.8-0.2
			c0.3,0.3,0.6,0.3,0.9,0l2.1,1.9c-0.7-0.2-1.2-0.3-1.9-0.5c-1-0.1-1.9-0.1-2.6,0.3c-1.2,0.5-1.9,1.1-2.1,1.8
			c-0.3,1,0.2,2.4,1.3,3.1c0.6,0.4,1.2,0.7,1.8,1c0.9,0.5,1.6,1,2.1,1.7c0.1,0.2,0.2,0,0.3-0.1c0.1-0.4,0.2-0.9,0.1-1.7
			c-0.1-0.4-0.2-0.6-0.3-0.7c-0.2-0.2-0.3-0.3-0.4-0.5c-0.1-0.3-0.2-0.6-0.1-1c0.2-0.9,1-1,1.7-0.9c1.1,0.2,2.1,0.8,2.9,1.3l0.3,1.3
			c0,0.1,0,0.1,0.1,0.1l1.2,0.4c0.1,0.2,0.3,0.4,0.4,0.6c0,0.2,0.1,0.3,0,0.7c-0.2,0.4-1,0.4-1.4,0.5c-0.1,0-0.3,0.1-0.4,0.1
			c-0.3,0.1-0.4,0.3-0.5,0.5c-0.1,0.2,0,0.5,0.1,0.8c0,0.1,0.1,0.1,0.2,0c0.1-0.2,0.3-0.4,0.5-0.4c0.4-0.1,0.7,0,0.8,0.1
			c0.7,0.3,1.2,0.6,1.7,0.6c0.3,0,0.5-0.1,0.7-0.2c0.2-0.1,0.3-0.4,0.4-0.6c0.4,0.2,0.7,0.3,1.4,0.5c0.5,0.1,1,0.1,1.5,0.1
			c0.1,0,0.1,0,0.2,0l0,0c0,0,0,0,0,0c0,0,0,0,0,0v0c0,0,0-0.1,0-0.2c0-0.5,0-1,0-1.5c-0.1-0.7-0.1-1.1-0.3-1.5
			c0.2,0,0.5-0.2,0.6-0.3c0.2-0.2,0.3-0.4,0.3-0.7c0-0.4-0.2-1-0.4-1.7c-0.1-0.2-0.1-0.5,0-0.8c0.1-0.2,0.3-0.4,0.5-0.4
			c0.1-0.1,0-0.2,0-0.2c-0.3-0.1-0.6-0.2-0.8-0.2c-0.2,0-0.4,0.2-0.5,0.4c-0.1,0.1-0.1,0.3-0.1,0.4c-0.1,0.3-0.3,1.2-0.6,1.3
			c-0.4,0.1-0.6,0-0.7,0c-0.2-0.1-0.4-0.3-0.5-0.4l-0.3-1.3c0-0.1,0-0.1-0.1-0.1l-1.3-0.4c-0.4-0.8-1-1.9-1-3c0-0.7,0.2-1.5,1-1.6
			c0.4,0,0.7,0.1,1,0.2c0.2,0.1,0.3,0.3,0.5,0.5c0.1,0.1,0.3,0.3,0.7,0.4c0.7,0.2,1.3,0.2,1.7,0.1c0.1,0,0.3-0.1,0.1-0.3
			c-0.7-0.5-1.1-1.3-1.5-2.3c-0.3-0.6-0.5-1.3-0.8-1.9c-0.6-1.2-1.9-1.8-3-1.6c-0.7,0.1-1.4,0.8-2,1.9c-0.4,0.7-0.6,1.6-0.5,2.6
			c0.1,0.8,0.1,1.3,0.3,2l-1.7-2.3c0.3-0.3,0.4-0.6,0.1-0.9c0.4-0.4,0.4-0.6,0.2-0.8c-0.1-0.2-0.3-0.4-0.5-0.5
			C484.5,52.7,484.2,52.8,483.9,53L483.9,53z M486.4,47h0.8h11.5c-0.7,6.6-1.4,13.1-2.1,19.7c-0.7,1.4-1.7,2.4-3,3.2
			c-1.2,0.7-2.6,1.1-4.2,1.3c-1.1,0.1-1.2,0.1-2.2,0.2v0c-0.1,0-0.3,0-0.4,0c-0.1,0-0.2,0-0.4,0v0c-1,0-1.1-0.1-2.2-0.2
			c-1.6-0.2-3-0.6-4.2-1.3c-1.3-0.7-2.4-1.7-3-3.2c-0.7-6.6-1.4-13.1-2.1-19.7H486.4L486.4,47z M472.4,65c0.7-0.1,1.3,0,2.1,0.1
			c0.7,0.1,1.3,0.4,1.9,0.7l0.1,1c0,0,0.1,0.2,0.1,0.3c-0.8,0.4-1.6,0.7-2.5,1c-0.1-0.4-0.2-0.7-0.6-1.3
			C473.2,66.2,472.8,65.6,472.4,65L472.4,65z M471.3,71.8c0.7,0.5,1.6,0.9,2.4,1.1c1,0.3,2.2,0.3,3.1,0.2c2.2-0.2,3-0.4,5.2-0.7
			c1.8-0.2,3.3-0.4,4.7-0.4c1.4,0,3,0.2,4.7,0.4c2.1,0.3,3,0.5,5.2,0.7c1,0.1,2.1,0.1,3.1-0.2c0.9-0.3,1.7-0.6,2.4-1.1
			c-0.2,1.3-0.6,2.5-1.1,3.7c-0.3,0.6-0.5,0.8-0.8,1.2c-0.5,0.5-1,0.8-1.8,1c-1,0.3-2.1,0.2-3.3,0c-0.8-0.2-1.7-0.4-2.7-0.6
			c-1.2-0.2-2.5-0.4-3.7-0.4c-0.7,0-1.3-0.1-2-0.1l0,0v0h0h0v0l0,0c-0.7,0-1.3,0-2,0.1c-1.3,0.1-2.5,0.2-3.7,0.4
			c-1,0.2-1.9,0.4-2.7,0.6c-1.3,0.2-2.3,0.2-3.3,0c-0.9-0.2-1.5-0.6-1.8-1c-0.3-0.3-0.7-1-0.9-1.5C471.8,74.1,471.5,73,471.3,71.8
			L471.3,71.8z M497.6,44.8h-4.2c0,0-0.1,0-0.1,0v-0.3c1.3,0,2.8,0,4.3,0L497.6,44.8C497.7,44.8,497.6,44.8,497.6,44.8L497.6,44.8z
			 M496.6,42.6h-2.3c-0.2,0-1.4,0-1.7,0.1c-0.3,0.1-0.3,0.3-0.3,0.4c0,0.2,0,0.4,0,0.6c0,0.2,0.1,0.3,0.4,0.4
			c0.4,0.1,1.1,0.1,1.5,0.1h2.3c0.3,0,1.2,0,1.6-0.1c0.4-0.1,0.4-0.1,0.5-0.4c0-0.2,0-0.4,0-0.6c0-0.2-0.1-0.3-0.4-0.4
			C498,42.6,496.8,42.6,496.6,42.6L496.6,42.6z M497.6,41.9h-4.2c0,0-0.1,0-0.1,0v0.3c1.3,0,2.8,0,4.3,0L497.6,41.9
			C497.7,41.9,497.6,41.9,497.6,41.9L497.6,41.9z M484.6,41.9h4.2c0,0,0.1,0,0.1,0v0.3c-1.3,0-2.8,0-4.3,0L484.6,41.9
			C484.6,41.9,484.6,41.9,484.6,41.9L484.6,41.9z M485.7,42.6h2.3c0.2,0,1.4,0,1.7,0.1c0.3,0.1,0.3,0.3,0.3,0.4c0,0.2,0,0.4,0,0.6
			c0,0.2-0.1,0.3-0.4,0.4c-0.4,0.1-1.1,0.1-1.5,0.1h-2.3c-0.3,0-1.2,0-1.6-0.1c-0.4-0.1-0.4-0.1-0.5-0.4c0-0.2,0-0.4,0-0.6
			c0-0.2,0.1-0.3,0.4-0.4C484.3,42.6,485.4,42.6,485.7,42.6L485.7,42.6z M484.6,44.8h4.2c0,0,0.1,0,0.1,0v-0.3c-1.3,0-2.8,0-4.3,0
			L484.6,44.8C484.6,44.8,484.6,44.8,484.6,44.8L484.6,44.8z M475.9,41.9h4.2c0,0,0.1,0,0.1,0v0.3c-1.3,0-2.8,0-4.3,0L475.9,41.9
			C475.9,41.9,475.9,41.9,475.9,41.9L475.9,41.9z M476.9,42.6h2.3c0.2,0,1.4,0,1.7,0.1c0.3,0.1,0.3,0.3,0.3,0.4c0,0.2,0,0.4,0,0.6
			c0,0.2-0.1,0.3-0.4,0.4c-0.4,0.1-1.1,0.1-1.5,0.1h-2.3c-0.3,0-1.2,0-1.6-0.1c-0.4-0.1-0.4-0.1-0.5-0.4c0-0.2,0-0.4,0-0.6
			c0-0.2,0.1-0.3,0.4-0.4C475.5,42.6,476.7,42.6,476.9,42.6L476.9,42.6z M475.9,44.8h4.2c0,0,0.1,0,0.1,0v-0.3c-1.3,0-2.8,0-4.3,0
			L475.9,44.8C475.9,44.8,475.9,44.8,475.9,44.8L475.9,44.8z M479.7,81.3c0.4,0,0.7-0.3,0.6-0.6c0-0.3-0.3-0.6-0.7-0.6
			c-0.4,0-0.7,0.3-0.6,0.6C479,81.1,479.4,81.3,479.7,81.3L479.7,81.3z M493.2,77.7l0,0.6c0-0.1,0.2-0.2,0.4-0.3
			c0.1,0,0.2-0.1,0.3-0.1l0.1,0c0.1,0,0.2,0.1,0.3,0.2c0.1,0.1,0.2,0.2,0.3,0.3l0-0.3C494.2,77.9,493.7,77.8,493.2,77.7L493.2,77.7z
			 M480.3,77.7l0,0.6c-0.1-0.1-0.2-0.2-0.4-0.2c-0.1,0-0.2-0.1-0.3-0.1l-0.1,0c-0.1,0-0.2,0.1-0.3,0.2c-0.1,0.1-0.2,0.2-0.3,0.3
			l0-0.3C479.3,77.9,479.8,77.8,480.3,77.7L480.3,77.7z M486,77c0.3,0,0.5,0,0.7,0v0c0,0,0,0,0,0c0,0,0,0,0,0v0c0.3,0,0.5,0,0.7,0
			c0,0,0,0.6,0,0.6c-0.2-0.2-0.3-0.3-0.7-0.4c-0.4,0.1-0.6,0.2-0.7,0.5C486,77.6,486,77,486,77L486,77z M481.8,78.7c0,0-0.1,0-0.3,0
			c-0.1,0-0.1,0-0.2,0c-0.2,0-0.3,0-0.4,0.1c-0.1,0-0.2,0.1-0.2,0.1c-0.1,0.1-0.2,0.3-0.3,0.4c-0.1,0.1-0.2,0.3-0.3,0.3l-0.2-0.1
			c0.1-0.3,0.2-0.6,0.3-0.9c-0.1-0.1-0.2-0.2-0.3-0.3c-0.1-0.1-0.2-0.1-0.4-0.1v0c0,0,0,0,0,0h0l0,0c-0.1,0.1-0.3,0.1-0.4,0.2
			c-0.1,0.1-0.2,0.2-0.3,0.3c0.1,0.3,0.2,0.6,0.3,0.8l-0.1,0.1c-0.1-0.1-0.2-0.2-0.4-0.3c-0.1-0.1-0.2-0.2-0.3-0.4
			c0,0-0.1-0.1-0.2-0.1c-0.1,0-0.2,0-0.4,0c-0.1,0-0.2,0-0.2,0c-0.2,0-0.2,0-0.3,0c-0.1,0.3,0.3,0.4,0.3,0.4c0.2,0,0.4,0.2,0.5,0.2
			c0.3,0.2,0.3,0.5,0.3,0.9c0,0.1,0,0.2,0.2,0.3c0,0,0.1,0,0.2,0c0-0.2,0.1-0.3,0.2-0.4c0.2-0.2,0.4-0.3,0.7-0.4h0
			c0.3,0,0.5,0.1,0.7,0.3c0.1,0.1,0.2,0.2,0.2,0.4c0.1,0,0.2,0,0.2-0.1c0.2-0.1,0.1-0.2,0.1-0.3c-0.1-0.3-0.1-0.6,0.2-0.9
			c0.1-0.1,0.3-0.2,0.4-0.3C481.6,79.1,481.9,78.9,481.8,78.7L481.8,78.7z M484.5,78c0,0,0.2,0,0.4,0c0.1,0,0.1,0,0.2,0
			c0.2,0,0.3,0,0.3,0.1c0.1,0,0.1,0.1,0.2,0.2c0.1,0.1,0.2,0.2,0.3,0.3c0.1,0.1,0.2,0.2,0.3,0.3l0.1-0.1c-0.1-0.3-0.2-0.5-0.3-0.8
			c0.1-0.1,0.1-0.2,0.3-0.3c0.1-0.1,0.3-0.2,0.4-0.2l0,0c0,0,0,0,0,0c0,0,0,0,0,0l0,0c0.2,0,0.3,0.1,0.4,0.2
			c0.2,0.1,0.3,0.2,0.3,0.4c-0.1,0.3-0.2,0.6-0.3,0.8l0.1,0.1c0.1-0.1,0.2-0.2,0.4-0.3c0.1-0.1,0.2-0.2,0.3-0.4c0,0,0.1-0.1,0.2-0.1
			c0.1,0,0.2,0,0.4,0c0.1,0,0.2,0,0.2,0c0.2,0,0.2,0,0.3,0c0.1,0.3-0.2,0.4-0.3,0.4c-0.2,0.1-0.4,0.2-0.4,0.3
			c-0.2,0.2-0.3,0.5-0.2,0.9c0,0.1,0,0.2-0.1,0.2c0,0-0.1,0-0.2,0c0-0.2-0.1-0.3-0.2-0.4c-0.2-0.2-0.4-0.3-0.7-0.3v0
			c-0.3,0-0.5,0.1-0.7,0.3c-0.1,0.1-0.2,0.2-0.2,0.4c-0.1,0-0.2,0-0.2,0c-0.2-0.1-0.1-0.2-0.1-0.3c0.1-0.4,0-0.6-0.2-0.8
			c-0.1-0.1-0.2-0.2-0.4-0.3C484.8,78.5,484.4,78.3,484.5,78L484.5,78z M491.7,78.7c0,0,0.1,0,0.2,0c0.1,0,0.1,0,0.2,0
			c0.2,0,0.3,0,0.4,0.1c0.1,0,0.1,0.1,0.2,0.1c0.1,0.1,0.2,0.3,0.3,0.4c0.1,0.1,0.2,0.2,0.3,0.3l0.1-0.1c-0.1-0.3-0.2-0.6-0.3-0.9
			c0-0.1,0.2-0.2,0.4-0.3c0.1-0.1,0.2-0.1,0.3-0.1c0.1,0.1,0.3,0.1,0.4,0.2c0.1,0.1,0.2,0.2,0.2,0.3c-0.1,0.2-0.2,0.6-0.3,0.8
			c0,0,0.1,0.1,0.1,0.1c0.2-0.1,0.4-0.4,0.7-0.6c0,0,0.1-0.1,0.2-0.1c0.3,0,0.8,0,0.8,0c0,0.1-0.1,0.3-0.3,0.4
			c-0.3,0.1-0.6,0.3-0.7,0.6c-0.1,0.2,0,0.5-0.1,0.6c0,0.1-0.1,0.1-0.2,0.1c0,0-0.1,0-0.1,0c0-0.3-0.3-0.7-0.8-0.8
			c-0.2,0-0.5,0.1-0.7,0.3c-0.1,0.1-0.2,0.2-0.2,0.4c-0.1,0-0.2,0-0.2-0.1c-0.2-0.1-0.1-0.2-0.1-0.3c0.1-0.3,0.1-0.6-0.1-0.9
			c-0.1-0.1-0.2-0.2-0.4-0.3C492,79.1,491.6,78.9,491.7,78.7L491.7,78.7z M493.8,81.3c-0.4,0-0.7-0.3-0.7-0.6c0-0.3,0.3-0.6,0.7-0.5
			c0.4,0,0.7,0.3,0.7,0.6C494.5,81.1,494.1,81.3,493.8,81.3L493.8,81.3z M486.7,80.5c-0.4,0-0.7-0.3-0.7-0.6c0-0.3,0.3-0.6,0.7-0.6
			c0.4,0,0.7,0.3,0.7,0.6C487.5,80.2,487.1,80.5,486.7,80.5L486.7,80.5z M498.8,33.6c-1,0.3-2.2,0.1-2.7,1.3
			c-0.2,0.4-0.3,0.7-0.6,1.2c-0.1,0.1-0.2,0.3-0.5,0.4c-0.7,0.4-2.2,0.9-2.4,1.8c-0.1,0.9,0.1,1.8,0.8,2.3c-0.1-0.4-0.1-1.3,0.5-2
			c0.1-0.2,0.3-0.1,0.3,0c-0.1,0.3-0.1,1.2,0.3,1.6c0-1.2,0.7-2.4,1.5-2.9c0.2-0.1,0.3,0.1,0.2,0.2c-0.1,0.2-0.2,0.4-0.2,0.6
			c-0.2,0.7-0.1,1.4,0.1,2.1c0.1-0.6,0.5-1.1,1.3-1.7c0.2-0.1,0.3,0.1,0.2,0.2c-0.3,0.7-0.6,1.6-0.3,2.1c0.7-0.2,0.6-0.8,0.8-1.4
			c0.1-0.4,0.1-0.4,0.7-1.3c0.2-0.6,0.1-1-0.1-1.8c-0.1,0.2-0.5,1.2-1.6,1.3c-0.3,0-0.5,0-0.3-0.3c0.3-0.5,0.6-0.8,0.7-1.3
			C497.8,34.9,498.3,34.4,498.8,33.6L498.8,33.6z M481.1,33.6c-1,0.3-2.2,0.1-2.7,1.3c-0.2,0.4-0.3,0.7-0.6,1.2
			c-0.1,0.1-0.2,0.3-0.5,0.4c-0.7,0.4-2.2,0.9-2.4,1.8c-0.1,0.9,0.1,1.8,0.8,2.3c-0.1-0.4-0.1-1.3,0.5-2c0.1-0.2,0.3-0.1,0.3,0
			c-0.1,0.3-0.1,1.2,0.3,1.6c0-1.2,0.7-2.4,1.5-2.9c0.2-0.1,0.3,0.1,0.2,0.2c-0.1,0.2-0.2,0.4-0.2,0.6c-0.2,0.7-0.1,1.4,0.1,2.1
			c0.1-0.6,0.5-1.1,1.3-1.7c0.2-0.1,0.3,0.1,0.2,0.2c-0.3,0.7-0.6,1.6-0.3,2.1c0.7-0.2,0.6-0.8,0.8-1.4c0.1-0.4,0.1-0.4,0.7-1.3
			c0.2-0.6,0.1-1-0.1-1.8c-0.1,0.2-0.5,1.2-1.6,1.3c-0.3,0-0.5,0-0.3-0.3c0.3-0.5,0.6-0.8,0.7-1.3C480.1,34.9,480.6,34.4,481.1,33.6
			L481.1,33.6z M489.9,33.6c-1,0.3-2.2,0.1-2.7,1.3c-0.2,0.4-0.3,0.7-0.6,1.2c-0.1,0.1-0.2,0.3-0.5,0.4c-0.7,0.4-2.2,0.9-2.4,1.8
			c-0.1,0.9,0.1,1.8,0.8,2.3c-0.1-0.4-0.1-1.3,0.5-2c0.1-0.2,0.3-0.1,0.3,0c-0.1,0.3-0.1,1.2,0.3,1.6c0-1.2,0.7-2.4,1.5-2.9
			c0.2-0.1,0.3,0.1,0.2,0.2c-0.1,0.2-0.2,0.4-0.2,0.6c-0.2,0.7-0.1,1.4,0.1,2.1c0.1-0.6,0.5-1.1,1.3-1.7c0.2-0.1,0.3,0.1,0.2,0.2
			c-0.3,0.7-0.6,1.6-0.3,2.1c0.7-0.2,0.6-0.8,0.8-1.4c0.1-0.4,0.1-0.4,0.7-1.3c0.2-0.6,0.1-1-0.1-1.8c-0.1,0.2-0.5,1.2-1.6,1.3
			c-0.3,0-0.5,0-0.3-0.3c0.3-0.5,0.6-0.8,0.7-1.3C488.8,34.9,489.3,34.4,489.9,33.6L489.9,33.6z M495.6,69.7l-0.2,2.9
			c1.5,0.2,2.7,0.3,3.3,0.2c0-0.5-0.5-1.1-1-1.6C497,70.5,496.1,69.9,495.6,69.7L495.6,69.7z M477.9,69.7l0.2,2.9
			c-1.5,0.2-2.7,0.3-3.3,0.2c0-0.5,0.5-1.1,1-1.6C476.5,70.5,477.4,69.9,477.9,69.7L477.9,69.7z M480.4,70.6l0,1.6
			c1.3-0.2,2.6-0.4,4.1-0.5C483,71.5,481.7,71.2,480.4,70.6L480.4,70.6z M493,70.6l0,1.6c-1.3-0.2-2.6-0.4-4.1-0.5
			C490.5,71.5,491.7,71.2,493,70.6L493,70.6z M499.1,33.2c-0.9,0.5-2.2,0.1-2.9,1.1c-0.4,0.6-0.6,1.7-1.3,2
			c-0.8,0.4-2.3,0.9-2.5,1.9c-0.2,1,0.2,2.2,1.2,2.7c0.1,0.1,0.3,0,0.2-0.2c-0.2-0.5-0.2-1.3,0.1-1.8c0.1,0.8,0.2,1.2,0.6,1.6
			c0,0,0.1,0.1,0.2,0c0,0,0.1-0.1,0.1-0.2c-0.1-0.6,0.1-1.8,1-2.7c-0.3,1.2-0.2,2,0.3,2.8c0.1,0.1,0.2,0.1,0.3,0c0,0,0-0.1,0-0.2
			c0-0.5,0.3-1,0.9-1.5c-0.1,0.3-0.5,1.3-0.1,2c0,0,0,0.1,0.1,0.1c0,0,0.2,0,0.2,0c0.5-0.1,0.7-0.4,0.8-0.8c0.1-0.6,0.1-0.9,0.6-1.7
			c0.6-1.1,0.2-1.8,0-2.9c0-0.1-0.2-0.2-0.3,0c0,0.1-0.3,1.5-1.5,1.7c0.4-0.6,0.6-0.8,0.7-1.4c0.2-1,0.8-1.5,1.3-2.3
			C499.5,33.2,499.2,33.1,499.1,33.2L499.1,33.2z M481.3,33.2c-0.9,0.5-2.2,0.1-2.9,1.1c-0.4,0.6-0.6,1.7-1.3,2
			c-0.8,0.4-2.3,0.9-2.5,1.9c-0.2,1,0.2,2.2,1.2,2.7c0.1,0.1,0.3,0,0.2-0.2c-0.2-0.5-0.2-1.3,0.1-1.8c0.1,0.8,0.2,1.2,0.6,1.6
			c0,0,0.1,0.1,0.2,0c0,0,0.1-0.1,0.1-0.2c-0.1-0.6,0.1-1.8,1-2.7c-0.3,1.2-0.2,2,0.3,2.8c0.1,0.1,0.2,0.1,0.3,0c0,0,0-0.1,0-0.2
			c0-0.5,0.3-1,0.9-1.5c-0.1,0.3-0.5,1.3-0.1,2c0,0,0,0.1,0.1,0.1c0,0,0.2,0,0.2,0c0.5-0.1,0.7-0.4,0.8-0.8c0.1-0.6,0.1-0.9,0.6-1.7
			c0.6-1.1,0.2-1.8,0-2.9c0-0.1-0.2-0.2-0.3,0c0,0.1-0.3,1.5-1.5,1.7c0.4-0.6,0.6-0.8,0.7-1.4c0.2-1,0.8-1.5,1.3-2.3
			C481.7,33.2,481.5,33.1,481.3,33.2L481.3,33.2z M490.1,33.2c-0.9,0.5-2.2,0.1-2.9,1.1c-0.4,0.6-0.6,1.7-1.3,2
			c-0.8,0.4-2.3,0.9-2.5,1.9c-0.2,1,0.2,2.2,1.2,2.7c0.1,0.1,0.3,0,0.2-0.2c-0.2-0.5-0.2-1.3,0.1-1.8c0.1,0.8,0.2,1.2,0.6,1.6
			c0,0,0.1,0.1,0.2,0c0,0,0.1-0.1,0.1-0.2c-0.1-0.6,0.1-1.8,1-2.7c-0.3,1.2-0.2,2,0.3,2.8c0.1,0.1,0.2,0.1,0.3,0c0,0,0-0.1,0-0.2
			c0-0.5,0.3-1,0.9-1.5c-0.1,0.3-0.5,1.3-0.1,2c0,0,0,0.1,0.1,0.1c0,0,0.2,0,0.2,0c0.5-0.1,0.7-0.4,0.8-0.8c0.1-0.6,0.1-0.9,0.6-1.7
			c0.6-1.1,0.2-1.8,0-2.9c0-0.1-0.2-0.2-0.3,0c0,0.1-0.3,1.5-1.5,1.7c0.4-0.6,0.6-0.8,0.7-1.4c0.2-1,0.8-1.5,1.3-2.3
			C490.5,33.2,490.2,33.1,490.1,33.2L490.1,33.2z"/>
                    </g>
                    <g>
                        <path class="st1" d="M539.2,32c0.5,0.1,1,0.2,1.5,0.2c0.5,0,1,0.1,1.6,0.1c0.7,0,1.3,0,1.8-0.1c0.5-0.1,1-0.1,1.5-0.2
			c-0.1,5.9-0.2,11.2-0.2,15.9c0,4.7-0.1,7.8-0.1,9.4c0,4.3,0.3,7.5,0.8,9.7c0.5,2.2,1.4,4,2.7,5.5c1.3,1.5,2.9,2.7,4.8,3.5
			c1.9,0.8,4.1,1.2,6.6,1.2c2.4,0,4.6-0.4,6.6-1.3c2-0.8,3.6-2,4.9-3.6c1.2-1.6,2.1-3.6,2.6-6c0.5-2.4,0.8-6.6,0.8-12.6
			c0-4,0-7.7-0.1-11.3c0-3.6-0.1-7.1-0.2-10.4c0.3,0.1,0.7,0.2,1,0.2c0.3,0,0.7,0.1,1.1,0.1c0.5,0,0.9,0,1.2-0.1
			c0.4,0,0.7-0.1,1.1-0.2c-0.1,2.8-0.2,5.3-0.3,7.6c-0.1,2.3-0.1,4-0.1,5v1.8c0,8.9-0.2,14.9-0.6,18.1c-0.4,3.2-1.2,5.7-2.2,7.6
			c-1.6,2.7-3.8,4.8-6.7,6.2c-2.8,1.4-6.3,2.1-10.3,2.1c-6.9,0-11.9-1.7-15.1-5c-3.2-3.3-4.8-8.7-4.8-15.9c0-0.3,0-2,0.2-5.2
			c0.1-3.2,0.1-6.2,0.1-9.1c0-2.2-0.1-5.9-0.2-11.2C539.3,33.1,539.3,32.5,539.2,32L539.2,32z M587.1,79.5c0.2-2.4,0.4-5.1,0.5-7.9
			c0.1-2.9,0.1-6.1,0.1-9.7c0-5,0-10-0.2-14.9c-0.1-5-0.2-9.9-0.4-14.9c0.9,0,1.9,0.1,3.2,0.1c1.2,0,3.3,0,6.3,0c3.4,0,6.3,0,8.6,0
			c2.3,0,4.5-0.1,6.8-0.1c0,0.2,0,0.6,0,1.2c0,0.5,0,0.9,0,1.1c0,0.3,0,0.6,0,1.1s0,0.8,0,1.1c-1.5-0.3-3.6-0.6-6.2-0.8
			c-2.6-0.2-6.1-0.3-10.5-0.4h-1.7c-0.1,1.3-0.1,2.7-0.1,4.2c0,1.5,0,3.6,0,6.3v4.8v2.2h5.5c2.2,0,4.3,0,6.2-0.1
			c1.9-0.1,3.8-0.2,5.6-0.4c0,0.2,0,0.5,0,0.8c0,0.3,0,0.7,0,1.3c0,0.5,0,0.9,0,1.2c0,0.3,0,0.5,0,0.7c-3.8-0.2-6.9-0.3-9.4-0.4
			c-2.4-0.1-4.4-0.1-5.9-0.1h-2v16c0,2.6,0,4.3,0,5.3c0,1,0.1,1.8,0.2,2.5c-0.5-0.1-1.1-0.2-1.7-0.2c-0.6,0-1.2-0.1-1.8-0.1
			c-0.6,0-1.1,0-1.6,0.1C588,79.4,587.6,79.4,587.1,79.5L587.1,79.5z M614.6,76.8c0.4-1.2,0.7-2.5,1-3.7c0.3-1.2,0.4-2.5,0.5-3.7
			c1,2.6,2.5,4.6,4.6,6.1c2,1.5,4.3,2.2,6.9,2.2c3,0,5.4-0.9,7.2-2.8c1.8-1.9,2.7-4.3,2.7-7.4c0-2.1-0.5-3.9-1.6-5.2
			c-1-1.3-2.9-2.5-5.5-3.5l-5.6-2.4c-3.2-1.3-5.6-2.9-7-4.8c-1.5-1.9-2.2-4.1-2.2-6.9c0-3.9,1.4-7.2,4.1-9.7
			c2.7-2.5,6.2-3.8,10.6-3.8c1.9,0,3.7,0.2,5.4,0.6c1.7,0.4,3.4,1.1,5.2,1.9c-0.3,0.7-0.7,1.6-1,2.4c-0.3,0.9-0.6,1.8-0.9,2.9
			c-1.2-1.8-2.6-3.1-4.2-4c-1.6-0.9-3.4-1.3-5.4-1.3c-2.6,0-4.6,0.8-6.1,2.3c-1.5,1.5-2.3,3.6-2.3,6.3c0,1.9,0.5,3.6,1.6,4.9
			c1.1,1.3,2.9,2.5,5.4,3.6l5.6,2.4c3.3,1.4,5.7,3,7.1,4.9c1.4,1.9,2.1,4.3,2.1,7.2c0,4.5-1.5,8.1-4.6,10.9c-3,2.8-7,4.1-12,4.1
			c-2.3,0-4.4-0.3-6.4-0.9C618,78.9,616.2,77.9,614.6,76.8L614.6,76.8z M646.8,79.5c0.9-3.8,1.8-9.4,2.9-16.7
			c1.1-7.3,2.5-17.9,4.2-31.7h1.2c4.1,8.2,7.7,15.3,10.8,21.3c3.1,6,6,11.5,8.8,16.5c3-5.4,6.2-11.1,9.6-17.3c3.3-6.1,7-13,11-20.5
			h0.9c0.6,6.1,1.4,12.9,2.2,20.4c0.8,7.5,1.9,16.8,3.2,28c-0.6-0.1-1.1-0.2-1.6-0.3c-0.5-0.1-1-0.1-1.5-0.1c-0.5,0-1,0-1.5,0.1
			c-0.5,0.1-1,0.1-1.6,0.3c-0.6-8.1-1.2-15.3-1.9-21.5c-0.6-6.2-1.2-10.6-1.8-13.2c-4.3,7.2-8,13.9-11.2,20
			c-3.2,6.1-5.4,11-6.6,14.6h-1c-0.5-1.8-1.3-3.8-2.3-6c-1-2.2-2.5-5.1-4.3-8.5l-10.8-20c-1.1,7.5-1.9,14.2-2.5,20.2
			c-0.6,6-0.9,10.8-0.9,14.5c-0.5-0.1-0.9-0.2-1.3-0.3c-0.4-0.1-0.8-0.1-1.2-0.1c-0.4,0-0.8,0-1.3,0.1
			C647.9,79.3,647.4,79.4,646.8,79.5L646.8,79.5z"/>
                    </g>
                </g>
                <g id="Camada_4">
                    <text transform="matrix(1 0 0 1 196.2494 116)" class="st2 st3"><?php echo $SITE->shortname?></text>
                </g>
</svg>